TiroDevaMarathi-Regular.ufo
<glyph name="dAnusvara" format="2">
  <unicode hex="0902"/>
  <outline>
    <contour>
      <point x="-131" y="828" type="line"/>
      <point x="-200" y="758" type="line"/>
      <point x="-131" y="690" type="line"/>
      <point x="-61" y="758" type="line"/>
    </contour>
  </outline>
  <guideline angle="0" x="0" y="675"/>
</glyph>
<glyph name="dE" format="2">
  <advance width="560"/>
  <unicode hex="090F"/>
  <outline>
    <contour>
      <point x="471" y="-164" type="line"/>
      <point x="506" y="-142"/>
      <point x="526" y="-115"/>
      <point x="526" y="-85" type="curve" smooth="yes"/>
      <point x="526" y="-41"/>
      <point x="495" y="-13"/>
      <point x="318" y="103" type="curve" smooth="yes"/>
      <point x="179" y="194"/>
      <point x="169" y="209"/>
      <point x="169" y="275" type="curve" smooth="yes"/>
      <point x="169" y="390"/>
      <point x="169" y="444"/>
      <point x="170" y="572" type="curve"/>
      <point x="86" y="572" type="line"/>
      <point x="85" y="467"/>
      <point x="84" y="401"/>
      <point x="84" y="288" type="curve" smooth="yes"/>
      <point x="84" y="202"/>
      <point x="97" y="188"/>
      <point x="279" y="69" type="curve" smooth="yes"/>
      <point x="411" y="-17"/>
      <point x="437" y="-36"/>
      <point x="437" y="-62" type="curve" smooth="yes"/>
      <point x="437" y="-76"/>
      <point x="430" y="-87"/>
      <point x="412" y="-100" type="curve"/>
    </contour>
    <contour>
      <point x="381" y="158" type="line"/>
      <point x="447" y="204"/>
      <point x="473" y="229"/>
      <point x="473" y="348" type="curve" smooth="yes"/>
      <point x="473" y="396"/>
      <point x="471" y="504"/>
      <point x="470" y="572" type="curve"/>
      <point x="389" y="572" type="line"/>
      <point x="390" y="485"/>
      <point x="391" y="435"/>
      <point x="391" y="364" type="curve" smooth="yes"/>
      <point x="391" y="275"/>
      <point x="366" y="254"/>
      <point x="321" y="223" type="curve"/>
    </contour>
    <contour>
      <point x="588" y="545" type="line"/>
      <point x="588" y="555" type="line"/>
      <point x="554" y="620" type="line"/>
      <point x="-28" y="620" type="line"/>
      <point x="-28" y="610" type="line"/>
      <point x="6" y="545" type="line"/>
    </contour>
  </outline>
</glyph>
<glyph name="dPha" format="2">
  <advance width="772"/>
  <unicode hex="092B"/>
  <outline>
    <contour>
      <point x="656" y="63" type="line"/>
      <point x="701" y="125"/>
      <point x="725" y="178"/>
      <point x="725" y="240" type="curve" smooth="yes"/>
      <point x="725" y="360"/>
      <point x="624" y="424"/>
      <point x="575" y="424" type="curve" smooth="yes"/>
      <point x="540" y="424"/>
      <point x="494" y="402"/>
      <point x="377" y="315" type="curve" smooth="yes"/>
      <point x="312" y="267"/>
      <point x="269" y="233"/>
      <point x="227" y="233" type="curve" smooth="yes"/>
      <point x="197" y="233"/>
      <point x="162" y="262"/>
      <point x="162" y="325" type="curve" smooth="yes"/>
      <point x="160" y="592" type="line"/>
      <point x="75" y="592" type="line"/>
      <point x="75" y="532"/>
      <point x="74" y="447"/>
      <point x="74" y="396" type="curve" smooth="yes"/>
      <point x="74" y="381"/>
      <point x="74" y="365"/>
      <point x="75" y="347" type="curve" smooth="yes"/>
      <point x="77" y="276"/>
      <point x="178" y="168"/>
      <point x="273" y="168" type="curve" smooth="yes"/>
      <point x="318" y="168"/>
      <point x="350" y="189"/>
      <point x="409" y="234" type="curve" smooth="yes"/>
      <point x="483" y="291"/>
      <point x="565" y="349"/>
      <point x="609" y="349" type="curve" smooth="yes"/>
      <point x="635" y="349"/>
      <point x="661" y="327"/>
      <point x="661" y="296" type="curve" smooth="yes"/>
      <point x="661" y="250"/>
      <point x="626" y="177"/>
      <point x="579" y="122" type="curve"/>
      <point x="648" y="63" type="line"/>
    </contour>
    <contour>
      <point x="452" y="-10" type="line"/>
      <point x="449" y="592" type="line"/>
      <point x="366" y="592" type="line"/>
      <point x="362" y="44" type="line"/>
      <point x="442" y="-10" type="line"/>
    </contour>
    <contour>
      <point x="800" y="545" type="line"/>
      <point x="800" y="555" type="line"/>
      <point x="766" y="620" type="line"/>
      <point x="-28" y="620" type="line"/>
      <point x="-28" y="610" type="line"/>
      <point x="6" y="545" type="line"/>
    </contour>
  </outline>
</glyph>
<glyph name="dLa" format="2">
  <advance width="665"/>
  <unicode hex="0932"/>
  <outline>
    <contour>
      <point x="264" y="-10" type="line"/>
      <point x="307" y="25" type="line"/>
      <point x="168" y="132"/>
      <point x="129" y="194"/>
      <point x="129" y="266" type="curve" smooth="yes"/>
      <point x="129" y="339"/>
      <point x="169" y="374"/>
      <point x="220" y="374" type="curve" smooth="yes"/>
      <point x="257" y="374"/>
      <point x="288" y="356"/>
      <point x="315" y="323" type="curve"/>
      <point x="337" y="355" type="line"/>
      <point x="298" y="404"/>
      <point x="254" y="448"/>
      <point x="185" y="448" type="curve" smooth="yes"/>
      <point x="101" y="448"/>
      <point x="49" y="383"/>
      <point x="49" y="299" type="curve" smooth="yes"/>
      <point x="49" y="195"/>
      <point x="132" y="106"/>
      <point x="254" y="-10" type="curve"/>
    </contour>
    <contour>
      <point x="512" y="63" type="line"/>
      <point x="581" y="131"/>
      <point x="620" y="209"/>
      <point x="620" y="267" type="curve" smooth="yes"/>
      <point x="620" y="330"/>
      <point x="575" y="437"/>
      <point x="467" y="437" type="curve" smooth="yes"/>
      <point x="381" y="437"/>
      <point x="316" y="368"/>
      <point x="268" y="265" type="curve"/>
      <point x="341" y="219" type="line"/>
      <point x="391" y="322"/>
      <point x="444" y="371"/>
      <point x="496" y="371" type="curve" smooth="yes"/>
      <point x="535" y="371"/>
      <point x="558" y="345"/>
      <point x="558" y="303" type="curve" smooth="yes"/>
      <point x="558" y="254"/>
      <point x="525" y="201"/>
      <point x="440" y="118" type="curve"/>
      <point x="504" y="63" type="line"/>
    </contour>
    <contour>
      <point x="693" y="545" type="line"/>
      <point x="693" y="555" type="line"/>
      <point x="659" y="620" type="line"/>
      <point x="-28" y="620" type="line"/>
      <point x="-28" y="610" type="line"/>
      <point x="6" y="545" type="line"/>
    </contour>
    <contour>
      <point x="509" y="420" type="line"/>
      <point x="508" y="571" type="line"/>
      <point x="427" y="571" type="line"/>
      <point x="429" y="416" type="line"/>
    </contour>
  </outline>
</glyph>
<glyph name="dLla" format="2">
  <advance width="728"/>
  <unicode hex="0933"/>
  <outline>
    <contour>
      <point x="530" y="55" type="curve" smooth="yes"/>
      <point x="625" y="55"/>
      <point x="686" y="138"/>
      <point x="686" y="236" type="curve" smooth="yes"/>
      <point x="686" y="328"/>
      <point x="628" y="432"/>
      <point x="515" y="432" type="curve" smooth="yes"/>
      <point x="432" y="432"/>
      <point x="396" y="393"/>
      <point x="362" y="338" type="curve" smooth="yes"/>
      <point x="320" y="270"/>
      <point x="304" y="121"/>
      <point x="199" y="121" type="curve" smooth="yes"/>
      <point x="142" y="121"/>
      <point x="108" y="162"/>
      <point x="108" y="216" type="curve" smooth="yes"/>
      <point x="108" y="289"/>
      <point x="163" y="377"/>
      <point x="242" y="377" type="curve" smooth="yes"/>
      <point x="278" y="377"/>
      <point x="311" y="360"/>
      <point x="359" y="304" type="curve"/>
      <point x="375" y="339" type="line"/>
      <point x="325" y="402"/>
      <point x="274" y="444"/>
      <point x="205" y="444" type="curve" smooth="yes"/>
      <point x="101" y="444"/>
      <point x="43" y="353"/>
      <point x="43" y="259" type="curve" smooth="yes"/>
      <point x="43" y="145"/>
      <point x="132" y="59"/>
      <point x="233" y="59" type="curve" smooth="yes"/>
      <point x="326" y="59"/>
      <point x="366" y="126"/>
      <point x="413" y="237" type="curve" smooth="yes"/>
      <point x="448" y="317"/>
      <point x="486" y="380"/>
      <point x="540" y="380" type="curve" smooth="yes"/>
      <point x="589" y="380"/>
      <point x="621" y="330"/>
      <point x="621" y="273" type="curve" smooth="yes"/>
      <point x="621" y="190"/>
      <point x="558" y="123"/>
      <point x="498" y="123" type="curve" smooth="yes"/>
      <point x="464" y="123"/>
      <point x="417" y="145"/>
      <point x="382" y="192" type="curve"/>
      <point x="362" y="159" type="line"/>
      <point x="426" y="83"/>
      <point x="476" y="55"/>
    </contour>
    <contour>
      <point x="756" y="545" type="line"/>
      <point x="756" y="555" type="line"/>
      <point x="722" y="620" type="line"/>
      <point x="-28" y="620" type="line"/>
      <point x="-28" y="610" type="line"/>
      <point x="6" y="545" type="line"/>
    </contour>
    <contour>
      <point x="544" y="402" type="line"/>
      <point x="543" y="581" type="line"/>
      <point x="462" y="581" type="line"/>
      <point x="463" y="402" type="line"/>
    </contour>
  </outline>
</glyph>
<glyph name="dSignIi" format="2">
  <advance width="267"/>
  <unicode hex="0940"/>
  <outline>
    <contour>
      <point x="171" y="600" type="line"/>
      <point x="141" y="772"/>
      <point x="40" y="880"/>
      <point x="-79" y="880" type="curve" smooth="yes"/>
      <point x="-166" y="880"/>
      <point x="-214" y="823"/>
      <point x="-214" y="756" type="curve" smooth="yes"/>
      <point x="-214" y="717"/>
      <point x="-197" y="676"/>
      <point x="-164" y="642" type="curve"/>
      <point x="-134" y="659" type="line"/>
      <point x="-143" y="679"/>
      <point x="-148" y="698"/>
      <point x="-148" y="716" type="curve" smooth="yes"/>
      <point x="-148" y="766"/>
      <point x="-113" y="803"/>
      <point x="-52" y="803" type="curve" smooth="yes"/>
      <point x="23" y="803"/>
      <point x="96" y="748"/>
      <point x="103" y="595" type="curve"/>
    </contour>
    <contour>
      <point x="180" y="-15" type="line"/>
      <point x="178" y="561" type="line"/>
      <point x="94" y="561" type="line"/>
      <point x="90" y="37" type="line"/>
      <point x="170" y="-15" type="line"/>
    </contour>
    <contour>
      <point x="295" y="545" type="line"/>
      <point x="295" y="555" type="line"/>
      <point x="261" y="620" type="line"/>
      <point x="-28" y="620" type="line"/>
      <point x="-28" y="610" type="line"/>
      <point x="6" y="545" type="line"/>
    </contour>
  </outline>
</glyph>
<glyph name="dSignVocalicRr" format="2">
  <unicode hex="0944"/>
  <outline>
    <contour>
      <point x="-38" y="-393" type="curve" smooth="yes"/>
      <point x="25" y="-393"/>
      <point x="87" y="-364"/>
      <point x="109" y="-351" type="curve"/>
      <point x="63" y="-293" type="line"/>
      <point x="23" y="-316"/>
      <point x="-22" y="-332"/>
      <point x="-70" y="-332" type="curve" smooth="yes"/>
      <point x="-103" y="-332"/>
      <point x="-132" y="-321"/>
      <point x="-132" y="-294" type="curve" smooth="yes"/>
      <point x="-132" y="-260"/>
      <point x="-90" y="-236"/>
      <point x="15" y="-222" type="curve"/>
      <point x="15" y="-216" type="line"/>
      <point x="-28" y="-160" type="line"/>
      <point x="-117" y="-170"/>
      <point x="-195" y="-200"/>
      <point x="-195" y="-267" type="curve" smooth="yes"/>
      <point x="-195" y="-344"/>
      <point x="-111" y="-393"/>
    </contour>
    <contour>
      <point x="-147" y="-207" type="line"/>
      <point x="-196" y="-205"/>
      <point x="-208" y="-178"/>
      <point x="-208" y="-160" type="curve" smooth="yes"/>
      <point x="-208" y="-131"/>
      <point x="-177" y="-93"/>
      <point x="-75" y="-85" type="curve"/>
      <point x="-75" y="-79" type="line"/>
      <point x="-121" y="-19" type="line"/>
      <point x="-201" y="-26"/>
      <point x="-272" y="-64"/>
      <point x="-272" y="-131" type="curve" smooth="yes"/>
      <point x="-272" y="-170"/>
      <point x="-249" y="-221"/>
      <point x="-175" y="-242" type="curve"/>
    </contour>
  </outline>
  <guideline angle="127.438" x="-150" y="0"/>
</glyph>
<glyph name="dSignCandraE" format="2">
  <unicode hex="0945"/>
  <outline>
    <contour>
      <point x="-331" y="838" type="line"/>
      <point x="-286" y="739"/>
      <point x="-222" y="672"/>
      <point x="-134" y="672" type="curve" smooth="yes"/>
      <point x="-67" y="672"/>
      <point x="1" y="711"/>
      <point x="39" y="813" type="curve"/>
      <point x="-30" y="866" type="line"/>
      <point x="-50" y="812"/>
      <point x="-94" y="739"/>
      <point x="-160" y="739" type="curve" smooth="yes"/>
      <point x="-203" y="739"/>
      <point x="-252" y="770"/>
      <point x="-297" y="856" type="curve"/>
    </contour>
  </outline>
</glyph>
<glyph name="dUdatta" format="2">
  <unicode hex="0951"/>
  <outline>
    <contour>
      <point x="-155" y="917" type="line"/>
      <point x="-155" y="672" type="line"/>
      <point x="-107" y="672" type="line"/>
      <point x="-107" y="917" type="line"/>
    </contour>
  </outline>
</glyph>
<glyph name="dTwo" format="2">
  <advance width="538"/>
  <unicode hex="0968"/>
  <outline>
    <contour>
      <point x="395" y="-139" type="line"/>
      <point x="453" y="-109" type="line"/>
      <point x="268" y="185" type="line"/>
      <point x="255" y="226" type="line"/>
      <point x="221" y="270"/>
      <point x="186" y="318"/>
      <point x="159" y="318" type="curve" smooth="yes"/>
      <point x="139" y="318"/>
      <point x="115" y="293"/>
      <point x="115" y="233" type="curve" smooth="yes"/>
      <point x="115" y="171"/>
      <point x="140" y="151"/>
      <point x="214" y="151" type="curve" smooth="yes"/>
      <point x="317" y="151"/>
      <point x="468" y="234"/>
      <point x="468" y="387" type="curve" smooth="yes"/>
      <point x="468" y="509"/>
      <point x="363" y="598"/>
      <point x="241" y="598" type="curve" smooth="yes"/>
      <point x="186" y="598"/>
      <point x="121" y="579"/>
      <point x="60" y="547" type="curve"/>
      <point x="104" y="472" type="line"/>
      <point x="164" y="503"/>
      <point x="236" y="527"/>
      <point x="291" y="527" type="curve" smooth="yes"/>
      <point x="363" y="527"/>
      <point x="397" y="484"/>
      <point x="397" y="422" type="curve" smooth="yes"/>
      <point x="397" y="333"/>
      <point x="329" y="256"/>
      <point x="225" y="238" type="curve"/>
      <point x="214" y="188" type="line"/>
      <point x="385" y="-139" type="line"/>
    </contour>
  </outline>
</glyph>
<glyph name="dEight" format="2">
  <advance width="507"/>
  <unicode hex="096E"/>
  <outline>
    <contour>
      <point x="417" y="179" type="line"/>
      <point x="354" y="120"/>
      <point x="300" y="87"/>
      <point x="239" y="87" type="curve" smooth="yes"/>
      <point x="174" y="87"/>
      <point x="124" y="122"/>
      <point x="124" y="173" type="curve" smooth="yes"/>
      <point x="124" y="235"/>
      <point x="201" y="330"/>
      <point x="395" y="521" type="curve"/>
      <point x="355" y="594" type="line"/>
      <point x="348" y="594" type="line"/>
      <point x="120" y="370"/>
      <point x="52" y="280"/>
      <point x="52" y="213" type="curve" smooth="yes"/>
      <point x="52" y="142"/>
      <point x="131" y="21"/>
      <point x="275" y="21" type="curve" smooth="yes"/>
      <point x="350" y="21"/>
      <point x="418" y="55"/>
      <point x="479" y="117" type="curve"/>
    </contour>
  </outline>
</glyph>
<glyph name="dAbbreviation" format="2">
  <advance width="411"/>
  <unicode hex="0970"/>
  <outline>
    <contour>
      <point x="195" y="445" type="curve" smooth="yes"/>
      <point x="125" y="445"/>
      <point x="58" y="391"/>
      <point x="58" y="311" type="curve" smooth="yes"/>
      <point x="58" y="226"/>
      <point x="134" y="157"/>
      <point x="215" y="157" type="curve" smooth="yes"/>
      <point x="288" y="157"/>
      <point x="353" y="214"/>
      <point x="353" y="289" type="curve" smooth="yes"/>
      <point x="353" y="371"/>
      <point x="276" y="445"/>
    </contour>
    <contour>
      <point x="226" y="390" type="curve" smooth="yes"/>
      <point x="266" y="390"/>
      <point x="294" y="364"/>
      <point x="294" y="320" type="curve" smooth="yes"/>
      <point x="294" y="260"/>
      <point x="244" y="212"/>
      <point x="186" y="212" type="curve" smooth="yes"/>
      <point x="138" y="212"/>
      <point x="114" y="244"/>
      <point x="114" y="281" type="curve" smooth="yes"/>
      <point x="114" y="336"/>
      <point x="167" y="390"/>
    </contour>
  </outline>
</glyph>
<glyph name="dOmJain" format="2">
  <advance width="597"/>
  <unicode hex="A8FD"/>
  <outline>
    <contour>
      <point x="425" y="130" type="line" smooth="yes"/>
      <point x="425" y="40"/>
      <point x="373" y="12"/>
      <point x="307" y="12" type="curve" smooth="yes"/>
      <point x="208" y="12"/>
      <point x="131" y="74"/>
      <point x="84" y="124" type="curve"/>
      <point x="56" y="98" type="line"/>
      <point x="121" y="17"/>
      <point x="217" y="-61"/>
      <point x="334" y="-61" type="curve" smooth="yes"/>
      <point x="447" y="-61"/>
      <point x="508" y="11"/>
      <point x="508" y="115" type="curve" smooth="yes"/>
      <point x="508" y="644" type="line" smooth="yes"/>
      <point x="508" y="723"/>
      <point x="530" y="764"/>
      <point x="595" y="764" type="curve" smooth="yes"/>
      <point x="615" y="764"/>
      <point x="633" y="760"/>
      <point x="654" y="754" type="curve"/>
      <point x="656" y="763" type="line"/>
      <point x="623" y="825" type="line"/>
      <point x="609" y="833"/>
      <point x="586" y="837"/>
      <point x="566" y="837" type="curve" smooth="yes"/>
      <point x="479" y="837"/>
      <point x="425" y="764"/>
      <point x="425" y="647" type="curve" smooth="yes"/>
    </contour>
    <contour>
      <point x="74" y="825" type="line"/>
      <point x="117" y="732"/>
      <point x="180" y="672"/>
      <point x="265" y="672" type="curve" smooth="yes"/>
      <point x="328" y="672"/>
      <point x="395" y="705"/>
      <point x="430" y="801" type="curve"/>
      <point x="362" y="853" type="line"/>
      <point x="345" y="804"/>
      <point x="303" y="737"/>
      <point x="237" y="737" type="curve" smooth="yes"/>
      <point x="197" y="737"/>
      <point x="152" y="761"/>
      <point x="108" y="843" type="curve"/>
    </contour>
    <contour>
      <point x="236" y="915" type="line"/>
      <point x="174" y="852" type="line"/>
      <point x="236" y="790" type="line"/>
      <point x="300" y="852" type="line"/>
    </contour>
    <contour>
      <point x="452" y="365" type="line"/>
      <point x="336" y="366"/>
      <point x="191" y="368"/>
      <point x="152" y="368" type="curve" smooth="yes"/>
      <point x="102" y="368"/>
      <point x="72" y="364"/>
      <point x="72" y="327" type="curve" smooth="yes"/>
      <point x="72" y="269"/>
      <point x="142" y="198"/>
      <point x="194" y="198" type="curve" smooth="yes"/>
      <point x="223" y="198"/>
      <point x="228" y="219"/>
      <point x="228" y="291" type="curve"/>
      <point x="452" y="291" type="line"/>
    </contour>
    <contour>
      <point x="471" y="620" type="line"/>
      <point x="60" y="620" type="line"/>
      <point x="60" y="610" type="line"/>
      <point x="94" y="545" type="line"/>
      <point x="471" y="545" type="line"/>
    </contour>
  </outline>
  <guideline angle="90" x="69" y="0"/>
</glyph>
<glyph name="dB.half2" format="2">
  <advance width="334"/>
  <outline>
    <contour>
      <point x="260" y="128" type="curve" smooth="yes"/>
      <point x="318" y="128"/>
      <point x="373" y="145"/>
      <point x="462" y="222" type="curve"/>
      <point x="409" y="283" type="line"/>
      <point x="351" y="230"/>
      <point x="296" y="192"/>
      <point x="228" y="192" type="curve" smooth="yes"/>
      <point x="171" y="192"/>
      <point x="112" y="220"/>
      <point x="112" y="284" type="curve" smooth="yes"/>
      <point x="112" y="354"/>
      <point x="181" y="394"/>
      <point x="253" y="394" type="curve" smooth="yes"/>
      <point x="309" y="394"/>
      <point x="362" y="370"/>
      <point x="408" y="336" type="curve"/>
      <point x="431" y="372" type="line"/>
      <point x="384" y="426"/>
      <point x="319" y="467"/>
      <point x="233" y="467" type="curve" smooth="yes"/>
      <point x="132" y="467"/>
      <point x="41" y="410"/>
      <point x="41" y="321" type="curve" smooth="yes"/>
      <point x="41" y="244"/>
      <point x="109" y="128"/>
    </contour>
    <contour>
      <point x="369" y="179" type="line"/>
      <point x="175" y="422" type="line"/>
      <point x="136" y="401" type="line"/>
      <point x="319" y="171" type="line"/>
    </contour>
    <contour>
      <point x="414" y="545" type="line"/>
      <point x="414" y="555" type="line"/>
      <point x="380" y="620" type="line"/>
      <point x="-28" y="620" type="line"/>
      <point x="-28" y="610" type="line"/>
      <point x="6" y="545" type="line"/>
    </contour>
  </outline>
</glyph>
<glyph name="dBDha" format="2">
  <advance width="911"/>
  <outline>
    <component base="dDha" xOffset="257"/>
    <contour>
      <point x="256" y="128" type="curve" smooth="yes"/>
      <point x="356" y="128"/>
      <point x="443" y="180"/>
      <point x="443" y="273" type="curve" smooth="yes"/>
      <point x="443" y="357"/>
      <point x="369" y="467"/>
      <point x="234" y="467" type="curve" smooth="yes"/>
      <point x="129" y="467"/>
      <point x="41" y="408"/>
      <point x="41" y="321" type="curve" smooth="yes"/>
      <point x="41" y="244"/>
      <point x="111" y="128"/>
    </contour>
    <contour>
      <point x="226" y="192" type="curve" smooth="yes"/>
      <point x="162" y="192"/>
      <point x="112" y="229"/>
      <point x="112" y="282" type="curve" smooth="yes"/>
      <point x="112" y="353"/>
      <point x="191" y="394"/>
      <point x="268" y="394" type="curve" smooth="yes"/>
      <point x="329" y="394"/>
      <point x="384" y="373"/>
      <point x="384" y="315" type="curve" smooth="yes"/>
      <point x="384" y="241"/>
      <point x="304" y="192"/>
    </contour>
    <contour>
      <point x="353" y="200" type="line"/>
      <point x="176" y="422" type="line"/>
      <point x="137" y="401" type="line"/>
      <point x="312" y="181" type="line"/>
    </contour>
    <contour>
      <point x="367" y="545" type="line"/>
      <point x="408" y="620" type="line"/>
      <point x="-28" y="620" type="line"/>
      <point x="-28" y="610" type="line"/>
      <point x="6" y="545" type="line"/>
    </contour>
  </outline>
</glyph>
<glyph name="dCCa" format="2">
  <advance width="979"/>
  <outline>
    <contour>
      <point x="364" y="128" type="curve" smooth="yes"/>
      <point x="400" y="128"/>
      <point x="449" y="135"/>
      <point x="532" y="204" type="curve"/>
      <point x="485" y="270" type="line"/>
      <point x="402" y="205"/>
      <point x="349" y="192"/>
      <point x="314" y="192" type="curve" smooth="yes"/>
      <point x="266" y="192"/>
      <point x="221" y="215"/>
      <point x="221" y="277" type="curve" smooth="yes"/>
      <point x="221" y="365"/>
      <point x="314" y="370"/>
      <point x="402" y="370" type="curve"/>
      <point x="402" y="402" type="line"/>
      <point x="190" y="402" type="line"/>
      <point x="157" y="362"/>
      <point x="149" y="336"/>
      <point x="149" y="310" type="curve" smooth="yes"/>
      <point x="149" y="232"/>
      <point x="224" y="128"/>
    </contour>
    <contour>
      <point x="487" y="371" type="line"/>
      <point x="576" y="371" type="line"/>
      <point x="659" y="388" type="line"/>
      <point x="705" y="373" type="line"/>
      <point x="719" y="373"/>
      <point x="725" y="373"/>
      <point x="747" y="372" type="curve"/>
      <point x="747" y="382" type="line"/>
      <point x="714" y="446" type="line"/>
      <point x="37" y="446" type="line"/>
      <point x="37" y="436" type="line"/>
      <point x="72" y="370" type="line"/>
      <point x="256" y="370" type="line"/>
      <point x="359" y="385" type="line"/>
      <point x="402" y="370" type="line"/>
    </contour>
    <contour>
      <point x="665" y="128" type="curve" smooth="yes"/>
      <point x="708" y="128"/>
      <point x="753" y="138"/>
      <point x="825" y="197" type="curve"/>
      <point x="825" y="301" type="line"/>
      <point x="721" y="209"/>
      <point x="658" y="192"/>
      <point x="617" y="192" type="curve" smooth="yes"/>
      <point x="569" y="192"/>
      <point x="524" y="215"/>
      <point x="524" y="277" type="curve" smooth="yes"/>
      <point x="524" y="365"/>
      <point x="617" y="373"/>
      <point x="705" y="373" type="curve"/>
      <point x="705" y="402" type="line"/>
      <point x="495" y="402" type="line"/>
      <point x="464" y="370"/>
      <point x="452" y="336"/>
      <point x="452" y="309" type="curve" smooth="yes"/>
      <point x="452" y="244"/>
      <point x="517" y="128"/>
    </contour>
    <contour>
      <point x="1007" y="545" type="line"/>
      <point x="1007" y="555" type="line"/>
      <point x="973" y="620" type="line"/>
      <point x="-28" y="620" type="line"/>
      <point x="-28" y="610" type="line"/>
      <point x="6" y="545" type="line"/>
    </contour>
    <contour>
      <point x="892" y="-10" type="line"/>
      <point x="890" y="581" type="line"/>
      <point x="806" y="581" type="line"/>
      <point x="802" y="42" type="line"/>
      <point x="882" y="-10" type="line"/>
    </contour>
  </outline>
</glyph>
<glyph name="dChYa" format="2">
  <advance width="1228"/>
  <outline>
    <component base="dCh.halfalt"/>
    <contour>
      <point x="1055" y="561" type="line"/>
      <point x="1051" y="7" type="line"/>
      <point x="1131" y="-45" type="line"/>
      <point x="1141" y="-45" type="line"/>
      <point x="1139" y="561" type="line"/>
    </contour>
    <contour>
      <point x="1067" y="214" type="line"/>
      <point x="1013" y="165"/>
      <point x="957" y="138"/>
      <point x="914" y="138" type="curve" smooth="yes"/>
      <point x="865" y="138"/>
      <point x="827" y="173"/>
      <point x="826" y="214" type="curve"/>
      <point x="917" y="242"/>
      <point x="953" y="278"/>
      <point x="953" y="329" type="curve" smooth="yes"/>
      <point x="953" y="384"/>
      <point x="909" y="478"/>
      <point x="785" y="478" type="curve" smooth="yes"/>
      <point x="577" y="478" type="line"/>
      <point x="639" y="405" type="line"/>
      <point x="810" y="405" type="line" smooth="yes"/>
      <point x="876" y="405"/>
      <point x="883" y="386"/>
      <point x="883" y="370" type="curve" smooth="yes"/>
      <point x="883" y="329"/>
      <point x="835" y="299"/>
      <point x="740" y="274" type="curve"/>
      <point x="760" y="162"/>
      <point x="844" y="75"/>
      <point x="945" y="75" type="curve" smooth="yes"/>
      <point x="980" y="75"/>
      <point x="1018" y="85"/>
      <point x="1050" y="105" type="curve"/>
      <point x="1066" y="97" type="line"/>
    </contour>
    <contour>
      <point x="1256" y="545" type="line"/>
      <point x="1256" y="555" type="line"/>
      <point x="1222" y="620" type="line"/>
      <point x="601" y="620" type="line"/>
      <point x="601" y="610" type="line"/>
      <point x="635" y="545" type="line"/>
    </contour>
  </outline>
</glyph>
<glyph name="dDBRa" format="2">
  <advance width="517"/>
  <outline>
    <contour>
      <point x="377" y="-104" type="line" smooth="yes"/>
      <point x="406" y="-75"/>
      <point x="426" y="-35"/>
      <point x="437" y="13" type="curve"/>
      <point x="375" y="95" type="line"/>
      <point x="371" y="-24"/>
      <point x="294" y="-87"/>
      <point x="219" y="-87" type="curve" smooth="yes"/>
      <point x="185" y="-87"/>
      <point x="148" y="-73"/>
      <point x="148" y="-29" type="curve" smooth="yes"/>
      <point x="148" y="29"/>
      <point x="219" y="76"/>
      <point x="289" y="72" type="curve"/>
      <point x="192" y="124" type="line"/>
      <point x="105" y="96"/>
      <point x="79" y="58"/>
      <point x="79" y="11" type="curve" smooth="yes"/>
      <point x="79" y="-60"/>
      <point x="133" y="-147"/>
      <point x="261" y="-147" type="curve"/>
      <point x="229" y="-126" type="line"/>
      <point x="230" y="-147" type="line"/>
      <point x="141" y="-229" type="line"/>
      <point x="204" y="-278" type="line"/>
    </contour>
    <contour>
      <point x="541" y="-180" type="line"/>
      <point x="595" y="-145" type="line"/>
      <point x="369" y="176" type="line"/>
      <point x="348" y="140"/>
      <point x="300" y="133"/>
      <point x="266" y="133" type="curve" smooth="yes"/>
      <point x="196" y="133"/>
      <point x="130" y="183"/>
      <point x="130" y="278" type="curve" smooth="yes"/>
      <point x="130" y="346"/>
      <point x="185" y="379"/>
      <point x="270" y="379" type="curve" smooth="yes"/>
      <point x="411" y="379" type="line"/>
      <point x="423" y="387" type="line"/>
      <point x="423" y="439"/>
      <point x="422" y="507"/>
      <point x="421" y="582" type="curve"/>
      <point x="340" y="582" type="line"/>
      <point x="340" y="454" type="line"/>
      <point x="265" y="454" type="line" smooth="yes"/>
      <point x="139" y="454"/>
      <point x="55" y="425"/>
      <point x="55" y="321" type="curve" smooth="yes"/>
      <point x="55" y="183"/>
      <point x="180" y="68"/>
      <point x="317" y="68" type="curve" smooth="yes"/>
      <point x="367" y="68"/>
      <point x="388" y="73"/>
      <point x="409" y="84" type="curve" smooth="yes"/>
      <point x="462" y="111"/>
      <point x="471" y="155"/>
      <point x="471" y="168" type="curve" smooth="yes"/>
      <point x="471" y="212"/>
      <point x="394" y="257"/>
      <point x="349" y="257" type="curve" smooth="yes"/>
      <point x="328" y="257"/>
      <point x="314" y="247"/>
      <point x="314" y="225" type="curve" smooth="yes"/>
      <point x="314" y="200"/>
      <point x="332" y="152"/>
      <point x="398" y="43" type="curve" smooth="yes"/>
      <point x="532" y="-180" type="line"/>
    </contour>
    <contour>
      <point x="328" y="-51" type="line"/>
      <point x="217" y="69" type="line"/>
      <point x="179" y="48" type="line"/>
      <point x="295" y="-76" type="line"/>
    </contour>
    <contour>
      <point x="550" y="545" type="line"/>
      <point x="550" y="555" type="line"/>
      <point x="516" y="620" type="line"/>
      <point x="-28" y="620" type="line"/>
      <point x="-28" y="610" type="line"/>
      <point x="6" y="545" type="line"/>
      <point x="550" y="555" type="line"/>
      <point x="516" y="620" type="line"/>
      <point x="-28" y="620" type="line"/>
      <point x="-28" y="610" type="line"/>
      <point x="6" y="545" type="line"/>
    </contour>
  </outline>
</glyph>
<glyph name="dDDYa" format="2">
  <advance width="978"/>
  <outline>
    <component base="dDDa"/>
    <contour>
      <point x="695" y="58" type="curve" smooth="yes"/>
      <point x="730" y="58"/>
      <point x="768" y="68"/>
      <point x="800" y="88" type="curve"/>
      <point x="816" y="80" type="line"/>
      <point x="817" y="197" type="line"/>
      <point x="763" y="148"/>
      <point x="707" y="121"/>
      <point x="664" y="121" type="curve" smooth="yes"/>
      <point x="615" y="121"/>
      <point x="577" y="157"/>
      <point x="576" y="198" type="curve"/>
      <point x="667" y="226"/>
      <point x="703" y="260"/>
      <point x="703" y="311" type="curve" smooth="yes"/>
      <point x="703" y="366"/>
      <point x="660" y="456"/>
      <point x="536" y="456" type="curve" smooth="yes"/>
      <point x="345" y="456" type="line"/>
      <point x="360" y="383" type="line"/>
      <point x="561" y="383" type="line" smooth="yes"/>
      <point x="627" y="383"/>
      <point x="633" y="368"/>
      <point x="633" y="352" type="curve" smooth="yes"/>
      <point x="633" y="311"/>
      <point x="585" y="283"/>
      <point x="490" y="258" type="curve"/>
      <point x="510" y="146"/>
      <point x="594" y="58"/>
    </contour>
    <contour>
      <point x="891" y="-45" type="line"/>
      <point x="889" y="591" type="line"/>
      <point x="805" y="591" type="line"/>
      <point x="801" y="7" type="line"/>
      <point x="881" y="-45" type="line"/>
    </contour>
    <contour>
      <point x="1006" y="545" type="line"/>
      <point x="1006" y="555" type="line"/>
      <point x="972" y="620" type="line"/>
      <point x="451" y="620" type="line"/>
      <point x="451" y="610" type="line"/>
      <point x="485" y="545" type="line"/>
    </contour>
  </outline>
</glyph>
<glyph name="dDDa" format="2">
  <advance width="521"/>
  <outline>
    <contour>
      <point x="501" y="-206" type="line"/>
      <point x="553" y="-173" type="line"/>
      <point x="394" y="47" type="line"/>
      <point x="363" y="21"/>
      <point x="321" y="8"/>
      <point x="278" y="8" type="curve" smooth="yes"/>
      <point x="205" y="8"/>
      <point x="172" y="44"/>
      <point x="172" y="86" type="curve" smooth="yes"/>
      <point x="172" y="125"/>
      <point x="197" y="168"/>
      <point x="290" y="186" type="curve"/>
      <point x="243" y="247" type="line"/>
      <point x="192" y="243"/>
      <point x="124" y="277"/>
      <point x="124" y="337" type="curve" smooth="yes"/>
      <point x="124" y="368"/>
      <point x="147" y="383"/>
      <point x="189" y="383" type="curve" smooth="yes"/>
      <point x="397" y="383" type="line"/>
      <point x="409" y="391" type="line"/>
      <point x="409" y="443"/>
      <point x="408" y="517"/>
      <point x="406" y="571" type="curve"/>
      <point x="326" y="571" type="line"/>
      <point x="326" y="458" type="line"/>
      <point x="171" y="458" type="line" smooth="yes"/>
      <point x="89" y="458"/>
      <point x="52" y="426"/>
      <point x="52" y="374" type="curve" smooth="yes"/>
      <point x="52" y="299"/>
      <point x="141" y="179"/>
      <point x="296" y="179" type="curve" smooth="yes"/>
      <point x="365" y="179"/>
      <point x="379" y="195"/>
      <point x="379" y="208" type="curve" smooth="yes"/>
      <point x="379" y="221"/>
      <point x="367" y="267"/>
      <point x="336" y="267" type="curve" smooth="yes"/>
      <point x="276" y="267"/>
      <point x="98" y="242"/>
      <point x="98" y="127" type="curve" smooth="yes"/>
      <point x="98" y="51"/>
      <point x="178" y="-57"/>
      <point x="317" y="-57" type="curve" smooth="yes"/>
      <point x="432" y="-57"/>
      <point x="483" y="-1"/>
      <point x="483" y="43" type="curve" smooth="yes"/>
      <point x="483" y="93"/>
      <point x="419" y="129"/>
      <point x="374" y="129" type="curve" smooth="yes"/>
      <point x="353" y="129"/>
      <point x="339" y="120"/>
      <point x="339" y="95" type="curve" smooth="yes"/>
      <point x="339" y="62"/>
      <point x="359" y="33"/>
      <point x="385" y="-14" type="curve" smooth="yes"/>
      <point x="492" y="-206" type="line"/>
    </contour>
    <contour>
      <point x="549" y="545" type="line"/>
      <point x="549" y="555" type="line"/>
      <point x="515" y="620" type="line"/>
      <point x="-28" y="620" type="line"/>
      <point x="-28" y="610" type="line"/>
      <point x="6" y="545" type="line"/>
    </contour>
  </outline>
</glyph>
<glyph name="dDGa" format="2">
  <advance width="517"/>
  <outline>
    <contour>
      <point x="531" y="-231" type="line"/>
      <point x="393" y="166" type="line"/>
      <point x="340" y="139"/>
      <point x="314" y="129"/>
      <point x="269" y="129" type="curve" smooth="yes"/>
      <point x="199" y="129"/>
      <point x="130" y="178"/>
      <point x="130" y="273" type="curve" smooth="yes"/>
      <point x="130" y="341"/>
      <point x="185" y="374"/>
      <point x="270" y="374" type="curve" smooth="yes"/>
      <point x="411" y="374" type="line"/>
      <point x="423" y="382" type="line"/>
      <point x="423" y="429"/>
      <point x="422" y="495"/>
      <point x="421" y="580" type="curve"/>
      <point x="340" y="580" type="line"/>
      <point x="340" y="449" type="line"/>
      <point x="265" y="449" type="line" smooth="yes"/>
      <point x="139" y="449"/>
      <point x="55" y="420"/>
      <point x="55" y="316" type="curve" smooth="yes"/>
      <point x="55" y="181"/>
      <point x="183" y="62"/>
      <point x="321" y="62" type="curve" smooth="yes"/>
      <point x="410" y="62"/>
      <point x="473" y="115"/>
      <point x="473" y="161" type="curve" smooth="yes"/>
      <point x="473" y="208"/>
      <point x="397" y="252"/>
      <point x="352" y="252" type="curve" smooth="yes"/>
      <point x="331" y="252"/>
      <point x="317" y="242"/>
      <point x="317" y="220" type="curve" smooth="yes"/>
      <point x="317" y="204"/>
      <point x="332" y="155"/>
      <point x="349" y="96" type="curve" smooth="yes"/>
      <point x="434" y="-202" type="line"/>
      <point x="521" y="-234" type="line"/>
    </contour>
    <contour>
      <point x="198" y="-153" type="curve" smooth="yes"/>
      <point x="213" y="-153"/>
      <point x="221" y="-145"/>
      <point x="221" y="-128" type="curve" smooth="yes"/>
      <point x="220" y="109" type="line"/>
      <point x="148" y="154" type="line"/>
      <point x="146" y="8" type="line"/>
      <point x="87" y="8" type="line" smooth="yes"/>
      <point x="69" y="8"/>
      <point x="62" y="-3"/>
      <point x="62" y="-15" type="curve" smooth="yes"/>
      <point x="62" y="-66"/>
      <point x="154" y="-153"/>
    </contour>
    <contour>
      <point x="545" y="545" type="line"/>
      <point x="545" y="555" type="line"/>
      <point x="511" y="620" type="line"/>
      <point x="-28" y="620" type="line"/>
      <point x="-28" y="610" type="line"/>
      <point x="6" y="545" type="line"/>
    </contour>
  </outline>
</glyph>
<glyph name="dDMa" format="2">
  <advance width="699"/>
  <outline>
    <contour>
      <point x="395" y="-8" type="curve" smooth="yes"/>
      <point x="410" y="-8"/>
      <point x="418" y="0"/>
      <point x="418" y="17" type="curve" smooth="yes"/>
      <point x="418" y="140" type="line"/>
      <point x="419" y="210"/>
      <point x="352" y="297"/>
      <point x="302" y="297" type="curve" smooth="yes"/>
      <point x="268" y="297"/>
      <point x="182" y="287"/>
      <point x="155" y="287" type="curve" smooth="yes"/>
      <point x="132" y="287"/>
      <point x="112" y="303"/>
      <point x="112" y="339" type="curve" smooth="yes"/>
      <point x="112" y="370"/>
      <point x="135" y="385"/>
      <point x="177" y="385" type="curve" smooth="yes"/>
      <point x="371" y="385" type="line"/>
      <point x="383" y="393" type="line"/>
      <point x="383" y="438"/>
      <point x="382" y="528"/>
      <point x="382" y="581" type="curve"/>
      <point x="300" y="581" type="line"/>
      <point x="300" y="460" type="line"/>
      <point x="159" y="460" type="line" smooth="yes"/>
      <point x="77" y="460"/>
      <point x="40" y="427"/>
      <point x="40" y="378" type="curve" smooth="yes"/>
      <point x="40" y="300"/>
      <point x="123" y="214"/>
      <point x="190" y="214" type="curve" smooth="yes"/>
      <point x="217" y="214"/>
      <point x="297" y="223"/>
      <point x="323" y="223" type="curve" smooth="yes"/>
      <point x="339" y="223"/>
      <point x="349" y="218"/>
      <point x="349" y="179" type="curve" smooth="yes"/>
      <point x="349" y="152"/>
      <point x="344" y="118"/>
      <point x="340" y="82" type="curve"/>
      <point x="559" y="82" type="line"/>
      <point x="559" y="156" type="line"/>
      <point x="286" y="156" type="line" smooth="yes"/>
      <point x="268" y="156"/>
      <point x="261" y="145"/>
      <point x="261" y="133" type="curve" smooth="yes"/>
      <point x="261" y="85"/>
      <point x="357" y="-8"/>
    </contour>
    <contour>
      <point x="612" y="-113" type="line"/>
      <point x="610" y="581" type="line"/>
      <point x="526" y="581" type="line"/>
      <point x="522" y="-61" type="line"/>
      <point x="602" y="-113" type="line"/>
    </contour>
    <contour>
      <point x="727" y="545" type="line"/>
      <point x="727" y="555" type="line"/>
      <point x="693" y="620" type="line"/>
      <point x="-28" y="620" type="line"/>
      <point x="-28" y="610" type="line"/>
      <point x="6" y="545" type="line"/>
    </contour>
  </outline>
  <guideline angle="90" x="408" y="0"/>
</glyph>
<glyph name="dDVa" format="2">
  <advance width="517"/>
  <outline>
    <contour>
      <point x="535" y="-170" type="line"/>
      <point x="589" y="-135" type="line"/>
      <point x="372" y="172" type="line"/>
      <point x="341" y="139"/>
      <point x="295" y="133"/>
      <point x="266" y="133" type="curve" smooth="yes"/>
      <point x="196" y="133"/>
      <point x="130" y="183"/>
      <point x="130" y="278" type="curve" smooth="yes"/>
      <point x="130" y="346"/>
      <point x="185" y="379"/>
      <point x="270" y="379" type="curve" smooth="yes"/>
      <point x="411" y="379" type="line"/>
      <point x="423" y="387" type="line"/>
      <point x="423" y="439"/>
      <point x="422" y="527"/>
      <point x="421" y="581" type="curve"/>
      <point x="340" y="581" type="line"/>
      <point x="340" y="454" type="line"/>
      <point x="265" y="454" type="line" smooth="yes"/>
      <point x="139" y="454"/>
      <point x="55" y="425"/>
      <point x="55" y="321" type="curve" smooth="yes"/>
      <point x="55" y="188"/>
      <point x="175" y="66"/>
      <point x="318" y="66" type="curve" smooth="yes"/>
      <point x="439" y="66"/>
      <point x="471" y="138"/>
      <point x="471" y="168" type="curve" smooth="yes"/>
      <point x="471" y="212"/>
      <point x="394" y="257"/>
      <point x="349" y="257" type="curve" smooth="yes"/>
      <point x="328" y="257"/>
      <point x="314" y="247"/>
      <point x="314" y="225" type="curve" smooth="yes"/>
      <point x="314" y="198"/>
      <point x="336" y="149"/>
      <point x="384" y="68" type="curve" smooth="yes"/>
      <point x="526" y="-170" type="line"/>
    </contour>
    <contour>
      <point x="272" y="-131" type="curve" smooth="yes"/>
      <point x="325" y="-131"/>
      <point x="406" y="-115"/>
      <point x="441" y="9" type="curve"/>
      <point x="382" y="101" type="line"/>
      <point x="367" y="-26"/>
      <point x="289" y="-67"/>
      <point x="228" y="-67" type="curve" smooth="yes"/>
      <point x="200" y="-67"/>
      <point x="169" y="-58"/>
      <point x="169" y="-22" type="curve" smooth="yes"/>
      <point x="169" y="30"/>
      <point x="231" y="64"/>
      <point x="282" y="75" type="curve"/>
      <point x="192" y="124" type="line"/>
      <point x="121" y="91"/>
      <point x="98" y="60"/>
      <point x="98" y="18" type="curve" smooth="yes"/>
      <point x="98" y="-49"/>
      <point x="154" y="-131"/>
    </contour>
    <contour>
      <point x="545" y="545" type="line"/>
      <point x="545" y="555" type="line"/>
      <point x="511" y="620" type="line"/>
      <point x="-28" y="620" type="line"/>
      <point x="-28" y="610" type="line"/>
      <point x="6" y="545" type="line"/>
    </contour>
  </outline>
</glyph>
<glyph name="dDdDa" format="2">
  <advance width="540"/>
  <outline>
    <contour>
      <point x="329" y="80" type="curve" smooth="yes"/>
      <point x="491" y="80"/>
      <point x="494" y="184"/>
      <point x="494" y="194" type="curve" smooth="yes"/>
      <point x="494" y="263"/>
      <point x="418" y="335"/>
      <point x="363" y="335" type="curve" smooth="yes"/>
      <point x="331" y="335"/>
      <point x="239" y="313"/>
      <point x="215" y="313" type="curve" smooth="yes"/>
      <point x="194" y="313"/>
      <point x="169" y="333"/>
      <point x="169" y="365" type="curve" smooth="yes"/>
      <point x="169" y="397"/>
      <point x="192" y="410"/>
      <point x="234" y="410" type="curve" smooth="yes"/>
      <point x="424" y="410" type="line"/>
      <point x="436" y="418" type="line"/>
      <point x="436" y="469"/>
      <point x="436" y="523"/>
      <point x="435" y="583" type="curve"/>
      <point x="355" y="583" type="line"/>
      <point x="355" y="482" type="line"/>
      <point x="216" y="482" type="line" smooth="yes"/>
      <point x="134" y="482"/>
      <point x="97" y="451"/>
      <point x="97" y="401" type="curve" smooth="yes"/>
      <point x="97" y="327"/>
      <point x="186" y="243"/>
      <point x="249" y="243" type="curve" smooth="yes"/>
      <point x="283" y="243"/>
      <point x="356" y="264"/>
      <point x="392" y="264" type="curve" smooth="yes"/>
      <point x="416" y="264"/>
      <point x="426" y="252"/>
      <point x="426" y="227" type="curve" smooth="yes"/>
      <point x="426" y="201"/>
      <point x="417" y="152"/>
      <point x="305" y="152" type="curve" smooth="yes"/>
      <point x="183" y="152"/>
      <point x="123" y="210"/>
      <point x="71" y="298" type="curve"/>
      <point x="34" y="278" type="line"/>
      <point x="101" y="154"/>
      <point x="201" y="80"/>
    </contour>
    <contour>
      <point x="467" y="-444" type="line"/>
      <point x="511" y="-415" type="line"/>
      <point x="400" y="-261" type="line"/>
      <point x="370" y="-285" type="line"/>
      <point x="458" y="-444" type="line"/>
    </contour>
    <contour>
      <point x="327" y="-322" type="curve" smooth="yes"/>
      <point x="440" y="-322"/>
      <point x="464" y="-251"/>
      <point x="464" y="-229" type="curve" smooth="yes"/>
      <point x="464" y="-187"/>
      <point x="395" y="-149"/>
      <point x="356" y="-149" type="curve" smooth="yes"/>
      <point x="338" y="-149"/>
      <point x="326" y="-158"/>
      <point x="326" y="-177" type="curve" smooth="yes"/>
      <point x="326" y="-195"/>
      <point x="336" y="-220"/>
      <point x="348" y="-246" type="curve"/>
      <point x="330" y="-256"/>
      <point x="297" y="-259"/>
      <point x="279" y="-259" type="curve" smooth="yes"/>
      <point x="207" y="-259"/>
      <point x="140" y="-208"/>
      <point x="140" y="-138" type="curve" smooth="yes"/>
      <point x="140" y="-78"/>
      <point x="189" y="-50"/>
      <point x="268" y="-50" type="curve" smooth="yes"/>
      <point x="412" y="-50" type="line"/>
      <point x="422" y="-43" type="line"/>
      <point x="422" y="-1"/>
      <point x="421" y="78"/>
      <point x="420" y="122" type="curve"/>
      <point x="347" y="122" type="line"/>
      <point x="347" y="23" type="line"/>
      <point x="269" y="23" type="line" smooth="yes"/>
      <point x="146" y="23"/>
      <point x="75" y="-4"/>
      <point x="75" y="-99" type="curve" smooth="yes"/>
      <point x="75" y="-219"/>
      <point x="189" y="-322"/>
    </contour>
    <contour>
      <point x="568" y="545" type="line"/>
      <point x="568" y="555" type="line"/>
      <point x="534" y="620" type="line"/>
      <point x="-28" y="620" type="line"/>
      <point x="-28" y="610" type="line"/>
      <point x="6" y="545" type="line"/>
    </contour>
  </outline>
</glyph>
<glyph name="dDdMa" format="2">
  <advance width="555"/>
  <outline>
    <contour>
      <point x="346" y="80" type="curve" smooth="yes"/>
      <point x="508" y="80"/>
      <point x="509" y="184"/>
      <point x="509" y="194" type="curve" smooth="yes"/>
      <point x="509" y="263"/>
      <point x="433" y="335"/>
      <point x="378" y="335" type="curve" smooth="yes"/>
      <point x="346" y="335"/>
      <point x="254" y="313"/>
      <point x="230" y="313" type="curve" smooth="yes"/>
      <point x="209" y="313"/>
      <point x="184" y="333"/>
      <point x="184" y="365" type="curve" smooth="yes"/>
      <point x="184" y="397"/>
      <point x="207" y="410"/>
      <point x="249" y="410" type="curve" smooth="yes"/>
      <point x="439" y="410" type="line"/>
      <point x="451" y="418" type="line"/>
      <point x="451" y="469"/>
      <point x="451" y="523"/>
      <point x="450" y="583" type="curve"/>
      <point x="370" y="583" type="line"/>
      <point x="370" y="482" type="line"/>
      <point x="231" y="482" type="line" smooth="yes"/>
      <point x="149" y="482"/>
      <point x="112" y="451"/>
      <point x="112" y="401" type="curve" smooth="yes"/>
      <point x="112" y="327"/>
      <point x="201" y="243"/>
      <point x="264" y="243" type="curve" smooth="yes"/>
      <point x="298" y="243"/>
      <point x="371" y="264"/>
      <point x="407" y="264" type="curve" smooth="yes"/>
      <point x="431" y="264"/>
      <point x="441" y="252"/>
      <point x="441" y="227" type="curve" smooth="yes"/>
      <point x="441" y="201"/>
      <point x="432" y="152"/>
      <point x="320" y="152" type="curve" smooth="yes"/>
      <point x="198" y="152"/>
      <point x="138" y="210"/>
      <point x="86" y="298" type="curve"/>
      <point x="49" y="278" type="line"/>
      <point x="116" y="154"/>
      <point x="218" y="80"/>
    </contour>
    <contour>
      <point x="98" y="-49" type="line" smooth="yes"/>
      <point x="80" y="-49"/>
      <point x="73" y="-60"/>
      <point x="73" y="-72" type="curve" smooth="yes"/>
      <point x="73" y="-122"/>
      <point x="158" y="-206"/>
      <point x="198" y="-206" type="curve" smooth="yes"/>
      <point x="213" y="-206"/>
      <point x="221" y="-198"/>
      <point x="221" y="-181" type="curve" smooth="yes"/>
      <point x="219" y="142" type="line"/>
      <point x="148" y="186" type="line"/>
      <point x="147" y="-114" type="line"/>
      <point x="430" y="-114" type="line"/>
      <point x="430" y="-49" type="line"/>
    </contour>
    <contour>
      <point x="472" y="-290" type="line"/>
      <point x="468" y="151" type="line"/>
      <point x="395" y="121" type="line"/>
      <point x="392" y="-245" type="line"/>
      <point x="463" y="-290" type="line"/>
    </contour>
    <contour>
      <point x="583" y="545" type="line"/>
      <point x="583" y="555" type="line"/>
      <point x="549" y="620" type="line"/>
      <point x="-28" y="620" type="line"/>
      <point x="-28" y="610" type="line"/>
      <point x="6" y="545" type="line"/>
    </contour>
  </outline>
</glyph>
<glyph name="dDh.half" format="2">
  <advance width="428"/>
  <outline>
    <contour>
      <point x="215" y="417" type="curve" smooth="yes"/>
      <point x="172" y="417"/>
      <point x="127" y="441"/>
      <point x="127" y="493" type="curve" smooth="yes"/>
      <point x="127" y="535"/>
      <point x="158" y="564"/>
      <point x="204" y="564" type="curve" smooth="yes"/>
      <point x="243" y="564"/>
      <point x="270" y="545"/>
      <point x="287" y="491" type="curve"/>
      <point x="296" y="491" type="line"/>
      <point x="297" y="499"/>
      <point x="298" y="508"/>
      <point x="298" y="518" type="curve" smooth="yes"/>
      <point x="298" y="576"/>
      <point x="265" y="633"/>
      <point x="180" y="633" type="curve" smooth="yes"/>
      <point x="107" y="633"/>
      <point x="54" y="591"/>
      <point x="54" y="525" type="curve" smooth="yes"/>
      <point x="54" y="458"/>
      <point x="110" y="402"/>
      <point x="173" y="372" type="curve"/>
      <point x="173" y="387" type="line"/>
      <point x="141" y="362"/>
      <point x="127" y="338"/>
      <point x="127" y="304" type="curve" smooth="yes"/>
      <point x="127" y="230"/>
      <point x="209" y="119"/>
      <point x="340" y="119" type="curve" smooth="yes"/>
      <point x="404" y="119"/>
      <point x="488" y="148"/>
      <point x="555" y="218" type="curve"/>
      <point x="517" y="291" type="line"/>
      <point x="424" y="209"/>
      <point x="349" y="184"/>
      <point x="299" y="184" type="curve" smooth="yes"/>
      <point x="246" y="184"/>
      <point x="200" y="214"/>
      <point x="200" y="260" type="curve" smooth="yes"/>
      <point x="200" y="308"/>
      <point x="247" y="349"/>
      <point x="389" y="363" type="curve"/>
      <point x="352" y="441" type="line"/>
      <point x="292" y="435"/>
      <point x="253" y="417"/>
    </contour>
    <contour>
      <point x="528" y="545" type="line"/>
      <point x="528" y="555" type="line"/>
      <point x="494" y="620" type="line"/>
      <point x="359" y="620" type="line"/>
      <point x="359" y="610" type="line"/>
      <point x="393" y="545" type="line"/>
    </contour>
  </outline>
</glyph>
<glyph name="dDhNYa" format="2">
  <advance width="1004"/>
  <outline>
    <component base="dYa" xOffset="422"/>
    <contour>
      <point x="541" y="226" type="line"/>
      <point x="536" y="317" type="line"/>
      <point x="431" y="215"/>
      <point x="346" y="192"/>
      <point x="299" y="192" type="curve" smooth="yes"/>
      <point x="246" y="192"/>
      <point x="200" y="221"/>
      <point x="200" y="265" type="curve" smooth="yes"/>
      <point x="200" y="310"/>
      <point x="247" y="350"/>
      <point x="389" y="363" type="curve"/>
      <point x="352" y="441" type="line"/>
      <point x="292" y="435"/>
      <point x="253" y="417"/>
      <point x="215" y="417" type="curve" smooth="yes"/>
      <point x="172" y="417"/>
      <point x="127" y="441"/>
      <point x="127" y="493" type="curve" smooth="yes"/>
      <point x="127" y="535"/>
      <point x="158" y="564"/>
      <point x="204" y="564" type="curve" smooth="yes"/>
      <point x="243" y="564"/>
      <point x="270" y="545"/>
      <point x="287" y="491" type="curve"/>
      <point x="296" y="491" type="line"/>
      <point x="297" y="499"/>
      <point x="298" y="508"/>
      <point x="298" y="518" type="curve" smooth="yes"/>
      <point x="298" y="576"/>
      <point x="265" y="633"/>
      <point x="180" y="633" type="curve" smooth="yes"/>
      <point x="107" y="633"/>
      <point x="54" y="591"/>
      <point x="54" y="525" type="curve" smooth="yes"/>
      <point x="54" y="459"/>
      <point x="109" y="403"/>
      <point x="172" y="373" type="curve"/>
      <point x="174" y="389" type="line"/>
      <point x="138" y="364"/>
      <point x="127" y="333"/>
      <point x="127" y="308" type="curve" smooth="yes"/>
      <point x="127" y="240"/>
      <point x="199" y="145"/>
      <point x="316" y="134" type="curve"/>
    </contour>
    <contour>
      <point x="292" y="-65" type="curve" smooth="yes"/>
      <point x="312" y="-65"/>
      <point x="318" y="-55"/>
      <point x="318" y="-42" type="curve" smooth="yes"/>
      <point x="318" y="-33"/>
      <point x="316" y="-14"/>
      <point x="294" y="41" type="curve"/>
      <point x="555" y="225" type="line"/>
      <point x="521" y="291" type="line"/>
      <point x="195" y="68" type="line" smooth="yes"/>
      <point x="176" y="55"/>
      <point x="159" y="42"/>
      <point x="159" y="24" type="curve" smooth="yes"/>
      <point x="159" y="-14"/>
      <point x="246" y="-65"/>
    </contour>
    <contour>
      <point x="536" y="545" type="line"/>
      <point x="536" y="555" type="line"/>
      <point x="502" y="620" type="line"/>
      <point x="359" y="620" type="line"/>
      <point x="359" y="610" type="line"/>
      <point x="393" y="545" type="line"/>
    </contour>
  </outline>
</glyph>
<glyph name="dEight.sups" format="2">
  <advance width="412"/>
  <outline>
    <contour>
      <point x="348" y="434" type="line"/>
      <point x="305" y="393"/>
      <point x="271" y="372"/>
      <point x="227" y="372" type="curve" smooth="yes"/>
      <point x="185" y="372"/>
      <point x="158" y="392"/>
      <point x="158" y="426" type="curve" smooth="yes"/>
      <point x="158" y="470"/>
      <point x="204" y="528"/>
      <point x="337" y="653" type="curve"/>
      <point x="302" y="717" type="line"/>
      <point x="297" y="717" type="line"/>
      <point x="132" y="568"/>
      <point x="95" y="505"/>
      <point x="95" y="460" type="curve" smooth="yes"/>
      <point x="95" y="406"/>
      <point x="150" y="314"/>
      <point x="259" y="314" type="curve" smooth="yes"/>
      <point x="313" y="314"/>
      <point x="359" y="337"/>
      <point x="402" y="380" type="curve"/>
    </contour>
  </outline>
</glyph>
<glyph name="dHLa" format="2">
  <advance width="646"/>
  <outline>
    <contour>
      <point x="417" y="-190" type="line"/>
      <point x="195" y="-127"/>
      <point x="145" y="-22"/>
      <point x="145" y="58" type="curve" smooth="yes"/>
      <point x="145" y="165"/>
      <point x="241" y="245"/>
      <point x="367" y="245" type="curve" smooth="yes"/>
      <point x="494" y="245"/>
      <point x="555" y="167"/>
      <point x="555" y="99" type="curve" smooth="yes"/>
      <point x="555" y="59"/>
      <point x="538" y="14"/>
      <point x="496" y="-29" type="curve"/>
      <point x="561" y="-80" type="line"/>
      <point x="603" y="-39"/>
      <point x="623" y="14"/>
      <point x="623" y="65" type="curve" smooth="yes"/>
      <point x="623" y="182"/>
      <point x="518" y="300"/>
      <point x="341" y="300" type="curve" smooth="yes"/>
      <point x="191" y="300"/>
      <point x="66" y="213"/>
      <point x="66" y="75" type="curve" smooth="yes"/>
      <point x="66" y="-42"/>
      <point x="158" y="-163"/>
      <point x="405" y="-229" type="curve"/>
    </contour>
    <contour>
      <point x="449" y="-106" type="line"/>
      <point x="325" y="-63"/>
      <point x="284" y="-7"/>
      <point x="284" y="47" type="curve" smooth="yes"/>
      <point x="284" y="90"/>
      <point x="311" y="119"/>
      <point x="348" y="119" type="curve" smooth="yes"/>
      <point x="368" y="119"/>
      <point x="388" y="109"/>
      <point x="405" y="96" type="curve"/>
      <point x="426" y="125" type="line"/>
      <point x="399" y="151"/>
      <point x="365" y="177"/>
      <point x="321" y="177" type="curve" smooth="yes"/>
      <point x="254" y="177"/>
      <point x="213" y="122"/>
      <point x="213" y="63" type="curve" smooth="yes"/>
      <point x="213" y="-16"/>
      <point x="289" y="-96"/>
      <point x="437" y="-143" type="curve"/>
    </contour>
    <contour>
      <point x="427" y="3" type="line"/>
      <point x="461" y="84"/>
      <point x="488" y="116"/>
      <point x="529" y="116" type="curve" smooth="yes"/>
      <point x="541" y="116"/>
      <point x="552" y="114"/>
      <point x="563" y="108" type="curve"/>
      <point x="555" y="142" type="line"/>
      <point x="530" y="159"/>
      <point x="513" y="165"/>
      <point x="494" y="165" type="curve" smooth="yes"/>
      <point x="434" y="165"/>
      <point x="392" y="109"/>
      <point x="362" y="32" type="curve"/>
    </contour>
    <contour>
      <point x="163" y="237" type="line"/>
      <point x="145" y="254"/>
      <point x="130" y="280"/>
      <point x="130" y="306" type="curve" smooth="yes"/>
      <point x="130" y="360"/>
      <point x="176" y="385"/>
      <point x="255" y="385" type="curve" smooth="yes"/>
      <point x="443" y="385" type="line"/>
      <point x="455" y="393" type="line"/>
      <point x="455" y="445"/>
      <point x="454" y="527"/>
      <point x="453" y="581" type="curve"/>
      <point x="372" y="581" type="line"/>
      <point x="372" y="460" type="line"/>
      <point x="237" y="460" type="line" smooth="yes"/>
      <point x="113" y="460"/>
      <point x="57" y="412"/>
      <point x="57" y="341" type="curve" smooth="yes"/>
      <point x="57" y="290"/>
      <point x="89" y="241"/>
      <point x="129" y="206" type="curve"/>
    </contour>
    <contour>
      <point x="674" y="545" type="line"/>
      <point x="674" y="555" type="line"/>
      <point x="640" y="620" type="line"/>
      <point x="-28" y="620" type="line"/>
      <point x="-28" y="610" type="line"/>
      <point x="6" y="545" type="line"/>
    </contour>
  </outline>
  <guideline angle="72.693" x="462" y="0"/>
</glyph>
<glyph name="dHVa" format="2">
  <advance width="591"/>
  <outline>
    <contour>
      <point x="510" y="75" type="line"/>
      <point x="432" y="18"/>
      <point x="392" y="-2"/>
      <point x="359" y="-2" type="curve" smooth="yes"/>
      <point x="329" y="-2"/>
      <point x="302" y="14"/>
      <point x="302" y="46" type="curve" smooth="yes"/>
      <point x="302" y="85"/>
      <point x="339" y="108"/>
      <point x="383" y="108" type="curve" smooth="yes"/>
      <point x="426" y="108"/>
      <point x="470" y="85"/>
      <point x="496" y="60" type="curve"/>
      <point x="494" y="107" type="line"/>
      <point x="465" y="141"/>
      <point x="416" y="172"/>
      <point x="361" y="172" type="curve" smooth="yes"/>
      <point x="294" y="172"/>
      <point x="237" y="127"/>
      <point x="237" y="71" type="curve" smooth="yes"/>
      <point x="237" y="19"/>
      <point x="286" y="-60"/>
      <point x="379" y="-60" type="curve" smooth="yes"/>
      <point x="422" y="-60"/>
      <point x="450" y="-42"/>
      <point x="505" y="-4" type="curve"/>
    </contour>
    <contour>
      <point x="369" y="581" type="line"/>
      <point x="369" y="460" type="line"/>
      <point x="234" y="460" type="line" smooth="yes"/>
      <point x="110" y="460"/>
      <point x="54" y="412"/>
      <point x="54" y="341" type="curve" smooth="yes"/>
      <point x="54" y="289"/>
      <point x="86" y="234"/>
      <point x="129" y="199" type="curve"/>
      <point x="161" y="233" type="line"/>
      <point x="142" y="251"/>
      <point x="127" y="279"/>
      <point x="127" y="306" type="curve" smooth="yes"/>
      <point x="127" y="360"/>
      <point x="173" y="385"/>
      <point x="252" y="385" type="curve" smooth="yes"/>
      <point x="440" y="385" type="line"/>
      <point x="452" y="393" type="line"/>
      <point x="452" y="445"/>
      <point x="451" y="527"/>
      <point x="450" y="581" type="curve"/>
    </contour>
    <contour>
      <point x="483" y="-91" type="line"/>
      <point x="555" y="-137" type="line"/>
      <point x="563" y="-137" type="line"/>
      <point x="561" y="75" type="line" smooth="yes"/>
      <point x="560" y="210"/>
      <point x="458" y="300"/>
      <point x="323" y="300" type="curve" smooth="yes"/>
      <point x="193" y="300"/>
      <point x="79" y="212"/>
      <point x="79" y="88" type="curve" smooth="yes"/>
      <point x="79" y="-30"/>
      <point x="174" y="-138"/>
      <point x="376" y="-195" type="curve"/>
      <point x="387" y="-153" type="line"/>
      <point x="211" y="-100"/>
      <point x="160" y="-11"/>
      <point x="160" y="71" type="curve" smooth="yes"/>
      <point x="160" y="170"/>
      <point x="246" y="244"/>
      <point x="353" y="244" type="curve" smooth="yes"/>
      <point x="398" y="244"/>
      <point x="434" y="231"/>
      <point x="458" y="208" type="curve" smooth="yes"/>
      <point x="486" y="180"/>
      <point x="487" y="148"/>
      <point x="488" y="32" type="curve"/>
    </contour>
    <contour>
      <point x="619" y="545" type="line"/>
      <point x="619" y="555" type="line"/>
      <point x="585" y="620" type="line"/>
      <point x="-28" y="620" type="line"/>
      <point x="-28" y="610" type="line"/>
      <point x="6" y="545" type="line"/>
    </contour>
  </outline>
</glyph>
<glyph name="dHYa" format="2">
  <advance width="769"/>
  <outline>
    <contour>
      <point x="432" y="-124" type="line"/>
      <point x="236" y="-73"/>
      <point x="177" y="14"/>
      <point x="177" y="88" type="curve" smooth="yes"/>
      <point x="177" y="174"/>
      <point x="256" y="261"/>
      <point x="347" y="261" type="curve" smooth="yes"/>
      <point x="381" y="261"/>
      <point x="423" y="252"/>
      <point x="423" y="219" type="curve" smooth="yes"/>
      <point x="423" y="177"/>
      <point x="359" y="145"/>
      <point x="292" y="126" type="curve"/>
      <point x="320" y="26"/>
      <point x="399" y="-51"/>
      <point x="492" y="-51" type="curve" smooth="yes"/>
      <point x="527" y="-51"/>
      <point x="559" y="-41"/>
      <point x="591" y="-21" type="curve"/>
      <point x="609" y="-29" type="line"/>
      <point x="609" y="88" type="line"/>
      <point x="554" y="38"/>
      <point x="504" y="11"/>
      <point x="461" y="11" type="curve" smooth="yes"/>
      <point x="421" y="11"/>
      <point x="387" y="37"/>
      <point x="375" y="69" type="curve"/>
      <point x="457" y="97"/>
      <point x="493" y="135"/>
      <point x="493" y="184" type="curve" smooth="yes"/>
      <point x="493" y="247"/>
      <point x="429" y="319"/>
      <point x="323" y="319" type="curve" smooth="yes"/>
      <point x="205" y="319"/>
      <point x="95" y="224"/>
      <point x="95" y="108" type="curve" smooth="yes"/>
      <point x="95" y="1"/>
      <point x="187" y="-109"/>
      <point x="421" y="-167" type="curve"/>
    </contour>
    <contour>
      <point x="156" y="232" type="line"/>
      <point x="137" y="251"/>
      <point x="122" y="279"/>
      <point x="122" y="306" type="curve" smooth="yes"/>
      <point x="122" y="360"/>
      <point x="168" y="385"/>
      <point x="247" y="385" type="curve" smooth="yes"/>
      <point x="435" y="385" type="line"/>
      <point x="447" y="393" type="line"/>
      <point x="447" y="445"/>
      <point x="446" y="537"/>
      <point x="445" y="591" type="curve"/>
      <point x="364" y="591" type="line"/>
      <point x="364" y="460" type="line"/>
      <point x="229" y="460" type="line" smooth="yes"/>
      <point x="105" y="460"/>
      <point x="49" y="412"/>
      <point x="49" y="341" type="curve" smooth="yes"/>
      <point x="49" y="286"/>
      <point x="85" y="229"/>
      <point x="129" y="194" type="curve"/>
    </contour>
    <contour>
      <point x="682" y="-147" type="line"/>
      <point x="680" y="591" type="line"/>
      <point x="596" y="591" type="line"/>
      <point x="592" y="-95" type="line"/>
      <point x="672" y="-147" type="line"/>
    </contour>
    <contour>
      <point x="797" y="545" type="line"/>
      <point x="797" y="555" type="line"/>
      <point x="763" y="620" type="line"/>
      <point x="-28" y="620" type="line"/>
      <point x="-28" y="610" type="line"/>
      <point x="6" y="545" type="line"/>
    </contour>
  </outline>
</glyph>
<glyph name="dHa_dSignUu" format="2">
  <advance width="532"/>
  <outline>
    <contour>
      <point x="178" y="218" type="line"/>
      <point x="139" y="240"/>
      <point x="122" y="276"/>
      <point x="122" y="306" type="curve" smooth="yes"/>
      <point x="122" y="360"/>
      <point x="168" y="385"/>
      <point x="247" y="385" type="curve" smooth="yes"/>
      <point x="435" y="385" type="line"/>
      <point x="447" y="393" type="line"/>
      <point x="447" y="440"/>
      <point x="445" y="495"/>
      <point x="445" y="581" type="curve"/>
      <point x="364" y="581" type="line"/>
      <point x="364" y="460" type="line"/>
      <point x="229" y="460" type="line" smooth="yes"/>
      <point x="105" y="460"/>
      <point x="49" y="412"/>
      <point x="49" y="341" type="curve" smooth="yes"/>
      <point x="49" y="284"/>
      <point x="85" y="224"/>
      <point x="146" y="184" type="curve"/>
    </contour>
    <contour>
      <point x="512" y="-277" type="line"/>
      <point x="549" y="-236" type="line"/>
      <point x="482" y="-152"/>
      <point x="334" y="-22"/>
      <point x="225" y="-22" type="curve" smooth="yes"/>
      <point x="146" y="-22"/>
      <point x="108" y="-71"/>
      <point x="108" y="-127" type="curve" smooth="yes"/>
      <point x="108" y="-198"/>
      <point x="172" y="-271"/>
      <point x="258" y="-271" type="curve" smooth="yes"/>
      <point x="298" y="-271"/>
      <point x="332" y="-256"/>
      <point x="360" y="-232" type="curve"/>
      <point x="309" y="-166" type="line"/>
      <point x="284" y="-187"/>
      <point x="254" y="-209"/>
      <point x="221" y="-209" type="curve" smooth="yes"/>
      <point x="189" y="-209"/>
      <point x="169" y="-189"/>
      <point x="169" y="-158" type="curve" smooth="yes"/>
      <point x="169" y="-119"/>
      <point x="203" y="-88"/>
      <point x="256" y="-88" type="curve" smooth="yes"/>
      <point x="362" y="-88"/>
      <point x="458" y="-213"/>
      <point x="505" y="-277" type="curve"/>
    </contour>
    <contour>
      <point x="313" y="-44" type="line"/>
      <point x="217" y="-2"/>
      <point x="179" y="48"/>
      <point x="179" y="96" type="curve" smooth="yes"/>
      <point x="179" y="169"/>
      <point x="256" y="243"/>
      <point x="346" y="243" type="curve" smooth="yes"/>
      <point x="394" y="243"/>
      <point x="422" y="226"/>
      <point x="422" y="187" type="curve" smooth="yes"/>
      <point x="422" y="140"/>
      <point x="384" y="110"/>
      <point x="340" y="89" type="curve"/>
      <point x="387" y="22" type="line"/>
      <point x="456" y="51"/>
      <point x="492" y="95"/>
      <point x="492" y="149" type="curve" smooth="yes"/>
      <point x="492" y="205"/>
      <point x="449" y="301"/>
      <point x="323" y="301" type="curve" smooth="yes"/>
      <point x="210" y="301"/>
      <point x="97" y="218"/>
      <point x="97" y="115" type="curve" smooth="yes"/>
      <point x="97" y="65"/>
      <point x="127" y="15"/>
      <point x="187" y="-24" type="curve"/>
      <point x="187" y="-72" type="line"/>
    </contour>
    <contour>
      <point x="560" y="545" type="line"/>
      <point x="560" y="555" type="line"/>
      <point x="526" y="620" type="line"/>
      <point x="-28" y="620" type="line"/>
      <point x="-28" y="610" type="line"/>
      <point x="6" y="545" type="line"/>
    </contour>
  </outline>
</glyph>
<glyph name="dJJNya" format="2">
  <advance width="1107"/>
  <outline>
    <component base="dJNya" xOffset="490"/>
    <contour>
      <point x="367" y="375" type="line"/>
      <point x="630" y="375" type="line"/>
      <point x="645" y="450" type="line"/>
      <point x="260" y="450" type="line"/>
      <point x="260" y="439" type="line"/>
      <point x="287" y="381" type="line"/>
    </contour>
    <contour>
      <point x="611" y="545" type="line"/>
      <point x="611" y="555" type="line"/>
      <point x="577" y="620" type="line"/>
      <point x="-28" y="620" type="line"/>
      <point x="-28" y="610" type="line"/>
      <point x="6" y="545" type="line"/>
    </contour>
    <contour>
      <point x="287" y="381" type="line"/>
      <point x="352" y="352"/>
      <point x="385" y="309"/>
      <point x="385" y="266" type="curve" smooth="yes"/>
      <point x="385" y="222"/>
      <point x="352" y="186"/>
      <point x="298" y="186" type="curve" smooth="yes"/>
      <point x="209" y="186"/>
      <point x="132" y="285"/>
      <point x="63" y="431" type="curve"/>
      <point x="22" y="413" type="line"/>
      <point x="96" y="254"/>
      <point x="189" y="105"/>
      <point x="325" y="105" type="curve" smooth="yes"/>
      <point x="399" y="105"/>
      <point x="464" y="150"/>
      <point x="464" y="228" type="curve" smooth="yes"/>
      <point x="464" y="284"/>
      <point x="436" y="320"/>
      <point x="368" y="391" type="curve"/>
    </contour>
  </outline>
</glyph>
<glyph name="dJNya" format="2">
  <advance width="617"/>
  <outline>
    <contour>
      <point x="214" y="50" type="curve" smooth="yes"/>
      <point x="297" y="50"/>
      <point x="358" y="108"/>
      <point x="358" y="177" type="curve" smooth="yes"/>
      <point x="358" y="261"/>
      <point x="271" y="335"/>
      <point x="214" y="373" type="curve"/>
      <point x="214" y="391" type="line"/>
      <point x="104" y="381" type="line"/>
      <point x="180" y="352"/>
      <point x="276" y="288"/>
      <point x="276" y="199" type="curve" smooth="yes"/>
      <point x="276" y="154"/>
      <point x="250" y="122"/>
      <point x="201" y="122" type="curve"/>
      <point x="157" y="179"/>
      <point x="113" y="208"/>
      <point x="87" y="208" type="curve" smooth="yes"/>
      <point x="63" y="208"/>
      <point x="51" y="183"/>
      <point x="51" y="156" type="curve" smooth="yes"/>
      <point x="51" y="72"/>
      <point x="162" y="50"/>
    </contour>
    <contour>
      <point x="299" y="-125" type="line"/>
      <point x="351" y="-92" type="line"/>
      <point x="228" y="78" type="line"/>
      <point x="173" y="79" type="line"/>
      <point x="290" y="-125" type="line"/>
    </contour>
    <contour>
      <point x="469" y="375" type="line"/>
      <point x="469" y="450" type="line"/>
      <point x="77" y="450" type="line"/>
      <point x="77" y="439" type="line"/>
      <point x="104" y="381" type="line"/>
      <point x="198" y="375" type="line"/>
    </contour>
    <contour>
      <point x="530" y="-10" type="line"/>
      <point x="528" y="581" type="line"/>
      <point x="444" y="581" type="line"/>
      <point x="440" y="42" type="line"/>
      <point x="520" y="-10" type="line"/>
    </contour>
    <contour>
      <point x="645" y="545" type="line"/>
      <point x="645" y="555" type="line"/>
      <point x="611" y="620" type="line"/>
      <point x="-28" y="620" type="line"/>
      <point x="-28" y="610" type="line"/>
      <point x="6" y="545" type="line"/>
    </contour>
  </outline>
</glyph>
<glyph name="dJhRa" format="2">
  <advance width="840"/>
  <outline>
    <contour>
      <point x="260" y="19" type="curve" smooth="yes"/>
      <point x="358" y="19"/>
      <point x="473" y="83"/>
      <point x="473" y="163" type="curve" smooth="yes"/>
      <point x="473" y="223"/>
      <point x="412" y="319"/>
      <point x="349" y="319" type="curve" smooth="yes"/>
      <point x="313" y="319"/>
      <point x="207" y="291"/>
      <point x="169" y="291" type="curve" smooth="yes"/>
      <point x="131" y="291"/>
      <point x="114" y="320"/>
      <point x="114" y="346" type="curve" smooth="yes"/>
      <point x="114" y="372"/>
      <point x="130" y="395"/>
      <point x="218" y="395" type="curve" smooth="yes"/>
      <point x="422" y="395" type="line"/>
      <point x="434" y="403" type="line"/>
      <point x="434" y="452"/>
      <point x="433" y="535"/>
      <point x="432" y="580" type="curve"/>
      <point x="353" y="580" type="line"/>
      <point x="353" y="469" type="line"/>
      <point x="191" y="469" type="line" smooth="yes"/>
      <point x="99" y="469"/>
      <point x="47" y="448"/>
      <point x="47" y="385" type="curve" smooth="yes"/>
      <point x="47" y="313"/>
      <point x="116" y="220"/>
      <point x="201" y="220" type="curve" smooth="yes"/>
      <point x="247" y="220"/>
      <point x="330" y="247"/>
      <point x="366" y="247" type="curve" smooth="yes"/>
      <point x="388" y="247"/>
      <point x="407" y="239"/>
      <point x="407" y="202" type="curve" smooth="yes"/>
      <point x="407" y="134"/>
      <point x="327" y="90"/>
      <point x="243" y="87" type="curve"/>
      <point x="197" y="148"/>
      <point x="152" y="177"/>
      <point x="125" y="177" type="curve" smooth="yes"/>
      <point x="101" y="177"/>
      <point x="89" y="153"/>
      <point x="89" y="126" type="curve" smooth="yes"/>
      <point x="89" y="48"/>
      <point x="189" y="19"/>
    </contour>
    <contour>
      <point x="337" y="-155" type="line"/>
      <point x="389" y="-122" type="line"/>
      <point x="262" y="52" type="line"/>
      <point x="209" y="53" type="line"/>
      <point x="328" y="-155" type="line"/>
    </contour>
    <contour>
      <point x="662" y="149" type="line"/>
      <point x="680" y="143" type="line"/>
      <point x="676" y="273" type="line"/>
      <point x="475" y="48" type="line"/>
      <point x="545" y="5" type="line"/>
    </contour>
    <contour>
      <point x="678" y="335" type="line"/>
      <point x="630" y="283"/>
      <point x="566" y="269"/>
      <point x="510" y="269" type="curve" smooth="yes"/>
      <point x="467" y="269"/>
      <point x="429" y="277"/>
      <point x="394" y="302" type="curve"/>
      <point x="441" y="225" type="line"/>
      <point x="455" y="239" type="line"/>
      <point x="492" y="223"/>
      <point x="526" y="219"/>
      <point x="562" y="219" type="curve" smooth="yes"/>
      <point x="578" y="219"/>
      <point x="609" y="223"/>
      <point x="635" y="231" type="curve"/>
      <point x="643" y="215" type="line"/>
      <point x="723" y="214" type="line"/>
    </contour>
    <contour>
      <point x="753" y="-10" type="line"/>
      <point x="751" y="580" type="line"/>
      <point x="667" y="580" type="line"/>
      <point x="663" y="42" type="line"/>
      <point x="743" y="-10" type="line"/>
    </contour>
    <contour>
      <point x="868" y="545" type="line"/>
      <point x="868" y="555" type="line"/>
      <point x="834" y="620" type="line"/>
      <point x="-28" y="620" type="line"/>
      <point x="-28" y="610" type="line"/>
      <point x="6" y="545" type="line"/>
    </contour>
  </outline>
</glyph>
<glyph name="dKKhYa" format="2">
  <advance width="1676"/>
  <outline>
    <component base="dKh.half" xOffset="526"/>
    <component base="dYa" xOffset="1094"/>
    <contour>
      <point x="227" y="138" type="curve" smooth="yes"/>
      <point x="287" y="138"/>
      <point x="345" y="177"/>
      <point x="400" y="219" type="curve" smooth="yes"/>
      <point x="465" y="269"/>
      <point x="525" y="324"/>
      <point x="579" y="324" type="curve" smooth="yes"/>
      <point x="582" y="324"/>
      <point x="586" y="324"/>
      <point x="590" y="323" type="curve"/>
      <point x="628" y="358" type="line"/>
      <point x="605" y="389"/>
      <point x="586" y="401"/>
      <point x="560" y="401" type="curve" smooth="yes"/>
      <point x="509" y="401"/>
      <point x="453" y="360"/>
      <point x="396" y="318" type="curve" smooth="yes"/>
      <point x="288" y="238"/>
      <point x="233" y="202"/>
      <point x="184" y="202" type="curve" smooth="yes"/>
      <point x="148" y="202"/>
      <point x="117" y="226"/>
      <point x="117" y="277" type="curve" smooth="yes"/>
      <point x="117" y="342"/>
      <point x="172" y="378"/>
      <point x="229" y="378" type="curve" smooth="yes"/>
      <point x="286" y="378"/>
      <point x="340" y="342"/>
      <point x="375" y="301" type="curve"/>
      <point x="375" y="355" type="line"/>
      <point x="335" y="409"/>
      <point x="276" y="455"/>
      <point x="203" y="455" type="curve" smooth="yes"/>
      <point x="124" y="455"/>
      <point x="45" y="402"/>
      <point x="45" y="316" type="curve" smooth="yes"/>
      <point x="45" y="233"/>
      <point x="119" y="138"/>
    </contour>
    <contour>
      <point x="454" y="-10" type="line"/>
      <point x="451" y="581" type="line"/>
      <point x="369" y="581" type="line"/>
      <point x="364" y="44" type="line"/>
      <point x="444" y="-10" type="line"/>
    </contour>
    <contour>
      <point x="1369" y="545" type="line"/>
      <point x="1369" y="555" type="line"/>
      <point x="1335" y="620" type="line"/>
      <point x="-28" y="620" type="line"/>
      <point x="-28" y="610" type="line"/>
      <point x="6" y="545" type="line"/>
    </contour>
  </outline>
</glyph>
<glyph name="dKSsM.half" format="2">
  <advance width="782"/>
  <outline>
    <contour>
      <point x="629" y="145" type="curve" smooth="yes"/>
      <point x="644" y="145"/>
      <point x="652" y="153"/>
      <point x="652" y="170" type="curve"/>
      <point x="650" y="591" type="line"/>
      <point x="568" y="591" type="line"/>
      <point x="567" y="240" type="line"/>
      <point x="896" y="240" type="line"/>
      <point x="878" y="315" type="line"/>
      <point x="602" y="315" type="line" smooth="yes"/>
      <point x="546" y="315"/>
      <point x="491" y="315"/>
      <point x="491" y="292" type="curve" smooth="yes"/>
      <point x="491" y="240"/>
      <point x="588" y="145"/>
    </contour>
    <contour>
      <point x="832" y="545" type="line"/>
      <point x="832" y="555" type="line"/>
      <point x="798" y="620" type="line"/>
      <point x="404" y="620" type="line"/>
      <point x="404" y="610" type="line"/>
      <point x="438" y="545" type="line"/>
    </contour>
    <contour>
      <point x="82" y="517" type="curve" smooth="yes"/>
      <point x="82" y="384"/>
      <point x="307" y="275"/>
      <point x="476" y="275" type="curve" smooth="yes"/>
      <point x="485" y="275"/>
      <point x="498" y="271"/>
      <point x="594" y="284" type="curve"/>
      <point x="594" y="361" type="line"/>
      <point x="526" y="344"/>
      <point x="468" y="338"/>
      <point x="421" y="338" type="curve" smooth="yes"/>
      <point x="305" y="338"/>
      <point x="158" y="396"/>
      <point x="158" y="487" type="curve" smooth="yes"/>
      <point x="158" y="533"/>
      <point x="199" y="567"/>
      <point x="245" y="567" type="curve" smooth="yes"/>
      <point x="288" y="567"/>
      <point x="317" y="541"/>
      <point x="317" y="501" type="curve" smooth="yes"/>
      <point x="317" y="446"/>
      <point x="260" y="412"/>
      <point x="201" y="376" type="curve" smooth="yes"/>
      <point x="139" y="338"/>
      <point x="75" y="297"/>
      <point x="75" y="225" type="curve" smooth="yes"/>
      <point x="75" y="130"/>
      <point x="183" y="31"/>
      <point x="306" y="31" type="curve" smooth="yes"/>
      <point x="410" y="31"/>
      <point x="449" y="97"/>
      <point x="449" y="133" type="curve" smooth="yes"/>
      <point x="449" y="180"/>
      <point x="374" y="222"/>
      <point x="331" y="222" type="curve" smooth="yes"/>
      <point x="307" y="222"/>
      <point x="295" y="208"/>
      <point x="295" y="187" type="curve" smooth="yes"/>
      <point x="295" y="158"/>
      <point x="318" y="118"/>
      <point x="344" y="72" type="curve" smooth="yes"/>
      <point x="454" y="-126" type="line"/>
      <point x="464" y="-126" type="line"/>
      <point x="516" y="-93" type="line"/>
      <point x="352" y="137" type="line"/>
      <point x="323" y="110"/>
      <point x="294" y="98"/>
      <point x="257" y="98" type="curve" smooth="yes"/>
      <point x="197" y="98"/>
      <point x="156" y="133"/>
      <point x="156" y="192" type="curve" smooth="yes"/>
      <point x="156" y="267"/>
      <point x="224" y="298"/>
      <point x="285" y="334" type="curve" smooth="yes"/>
      <point x="337" y="365"/>
      <point x="385" y="399"/>
      <point x="385" y="467" type="curve" smooth="yes"/>
      <point x="385" y="556"/>
      <point x="299" y="633"/>
      <point x="209" y="633" type="curve" smooth="yes"/>
      <point x="133" y="633"/>
      <point x="82" y="579"/>
    </contour>
  </outline>
</glyph>
<glyph name="dKSsa" format="2">
  <advance width="719"/>
  <outline>
    <contour>
      <point x="306" y="31" type="curve" smooth="yes"/>
      <point x="398" y="31"/>
      <point x="449" y="86"/>
      <point x="449" y="133" type="curve" smooth="yes"/>
      <point x="449" y="180"/>
      <point x="374" y="222"/>
      <point x="331" y="222" type="curve" smooth="yes"/>
      <point x="307" y="222"/>
      <point x="295" y="208"/>
      <point x="295" y="187" type="curve" smooth="yes"/>
      <point x="295" y="163"/>
      <point x="310" y="135"/>
      <point x="321" y="114" type="curve"/>
      <point x="301" y="103"/>
      <point x="279" y="98"/>
      <point x="257" y="98" type="curve" smooth="yes"/>
      <point x="197" y="98"/>
      <point x="156" y="133"/>
      <point x="156" y="192" type="curve" smooth="yes"/>
      <point x="156" y="266"/>
      <point x="223" y="298"/>
      <point x="286" y="335" type="curve" smooth="yes"/>
      <point x="344" y="369"/>
      <point x="385" y="404"/>
      <point x="385" y="467" type="curve" smooth="yes"/>
      <point x="385" y="556"/>
      <point x="299" y="633"/>
      <point x="209" y="633" type="curve" smooth="yes"/>
      <point x="133" y="633"/>
      <point x="82" y="579"/>
      <point x="82" y="517" type="curve" smooth="yes"/>
      <point x="82" y="385"/>
      <point x="305" y="288"/>
      <point x="463" y="288" type="curve" smooth="yes"/>
      <point x="500" y="288"/>
      <point x="530" y="294"/>
      <point x="558" y="303" type="curve"/>
      <point x="559" y="397" type="line"/>
      <point x="507" y="368"/>
      <point x="465" y="351"/>
      <point x="403" y="351" type="curve" smooth="yes"/>
      <point x="291" y="351"/>
      <point x="158" y="403"/>
      <point x="158" y="487" type="curve" smooth="yes"/>
      <point x="158" y="533"/>
      <point x="199" y="567"/>
      <point x="245" y="567" type="curve" smooth="yes"/>
      <point x="288" y="567"/>
      <point x="317" y="541"/>
      <point x="317" y="501" type="curve" smooth="yes"/>
      <point x="317" y="447"/>
      <point x="267" y="417"/>
      <point x="212" y="383" type="curve" smooth="yes"/>
      <point x="147" y="343"/>
      <point x="75" y="302"/>
      <point x="75" y="224" type="curve" smooth="yes"/>
      <point x="75" y="131"/>
      <point x="183" y="31"/>
    </contour>
    <contour>
      <point x="464" y="-126" type="line"/>
      <point x="516" y="-93" type="line"/>
      <point x="387" y="89" type="line"/>
      <point x="344" y="70" type="line"/>
      <point x="454" y="-126" type="line"/>
    </contour>
    <contour>
      <point x="632" y="-15" type="line"/>
      <point x="630" y="581" type="line"/>
      <point x="546" y="581" type="line"/>
      <point x="542" y="37" type="line"/>
      <point x="622" y="-15" type="line"/>
    </contour>
    <contour>
      <point x="747" y="545" type="line"/>
      <point x="747" y="555" type="line"/>
      <point x="713" y="620" type="line"/>
      <point x="404" y="620" type="line"/>
      <point x="404" y="610" type="line"/>
      <point x="438" y="545" type="line"/>
    </contour>
  </outline>
</glyph>
<glyph name="dKTha" format="2">
  <advance width="1178"/>
  <outline>
    <component base="dTha" xOffset="526"/>
    <contour>
      <point x="454" y="-10" type="line"/>
      <point x="451" y="545" type="line"/>
      <point x="642" y="545" type="line"/>
      <point x="642" y="555" type="line"/>
      <point x="680" y="620" type="line"/>
      <point x="-28" y="620" type="line"/>
      <point x="-28" y="610" type="line"/>
      <point x="6" y="545" type="line"/>
      <point x="369" y="545" type="line"/>
      <point x="364" y="44" type="line"/>
      <point x="444" y="-10" type="line"/>
    </contour>
    <contour>
      <point x="227" y="138" type="curve" smooth="yes"/>
      <point x="282" y="138"/>
      <point x="323" y="162"/>
      <point x="382" y="210" type="curve"/>
      <point x="380" y="308" type="line"/>
      <point x="316" y="258"/>
      <point x="240" y="202"/>
      <point x="184" y="202" type="curve" smooth="yes"/>
      <point x="148" y="202"/>
      <point x="117" y="226"/>
      <point x="117" y="277" type="curve" smooth="yes"/>
      <point x="117" y="342"/>
      <point x="172" y="378"/>
      <point x="229" y="378" type="curve" smooth="yes"/>
      <point x="286" y="378"/>
      <point x="340" y="342"/>
      <point x="375" y="301" type="curve"/>
      <point x="375" y="355" type="line"/>
      <point x="335" y="409"/>
      <point x="276" y="455"/>
      <point x="203" y="455" type="curve" smooth="yes"/>
      <point x="124" y="455"/>
      <point x="45" y="402"/>
      <point x="45" y="316" type="curve" smooth="yes"/>
      <point x="45" y="233"/>
      <point x="119" y="138"/>
    </contour>
    <contour>
      <point x="442" y="243" type="line"/>
      <point x="481" y="276"/>
      <point x="542" y="330"/>
      <point x="597" y="330" type="curve" smooth="yes"/>
      <point x="609" y="330"/>
      <point x="621" y="328"/>
      <point x="635" y="320" type="curve"/>
      <point x="653" y="362" type="line"/>
      <point x="622" y="391"/>
      <point x="596" y="404"/>
      <point x="568" y="404" type="curve" smooth="yes"/>
      <point x="524" y="404"/>
      <point x="483" y="377"/>
      <point x="437" y="343" type="curve"/>
    </contour>
  </outline>
</glyph>
<glyph name="dKVa" format="2">
  <advance width="767"/>
  <outline>
    <contour>
      <point x="645" y="86" type="line"/>
      <point x="690" y="148"/>
      <point x="716" y="199"/>
      <point x="716" y="261" type="curve" smooth="yes"/>
      <point x="716" y="381"/>
      <point x="619" y="443"/>
      <point x="571" y="443" type="curve" smooth="yes"/>
      <point x="533" y="443"/>
      <point x="490" y="414"/>
      <point x="413" y="354" type="curve" smooth="yes"/>
      <point x="287" y="255"/>
      <point x="239" y="220"/>
      <point x="193" y="220" type="curve" smooth="yes"/>
      <point x="157" y="220"/>
      <point x="127" y="244"/>
      <point x="127" y="295" type="curve" smooth="yes"/>
      <point x="127" y="360"/>
      <point x="181" y="396"/>
      <point x="237" y="396" type="curve" smooth="yes"/>
      <point x="293" y="396"/>
      <point x="347" y="360"/>
      <point x="381" y="319" type="curve"/>
      <point x="381" y="373" type="line"/>
      <point x="342" y="427"/>
      <point x="282" y="473"/>
      <point x="211" y="473" type="curve" smooth="yes"/>
      <point x="133" y="473"/>
      <point x="55" y="420"/>
      <point x="55" y="334" type="curve" smooth="yes"/>
      <point x="55" y="240"/>
      <point x="141" y="156"/>
      <point x="231" y="156" type="curve" smooth="yes"/>
      <point x="291" y="156"/>
      <point x="335" y="193"/>
      <point x="409" y="252" type="curve" smooth="yes"/>
      <point x="501" y="325"/>
      <point x="563" y="368"/>
      <point x="604" y="368" type="curve" smooth="yes"/>
      <point x="629" y="368"/>
      <point x="652" y="349"/>
      <point x="652" y="315" type="curve" smooth="yes"/>
      <point x="652" y="271"/>
      <point x="614" y="200"/>
      <point x="568" y="145" type="curve"/>
      <point x="637" y="86" type="line"/>
    </contour>
    <contour>
      <point x="260" y="-34" type="curve" smooth="yes"/>
      <point x="303" y="-34"/>
      <point x="345" y="-17"/>
      <point x="386" y="10" type="curve"/>
      <point x="387" y="111" type="line"/>
      <point x="323" y="62"/>
      <point x="268" y="30"/>
      <point x="219" y="30" type="curve" smooth="yes"/>
      <point x="167" y="30"/>
      <point x="144" y="61"/>
      <point x="144" y="102" type="curve" smooth="yes"/>
      <point x="144" y="136"/>
      <point x="163" y="158"/>
      <point x="187" y="176" type="curve"/>
      <point x="115" y="226" type="line"/>
      <point x="90" y="204"/>
      <point x="72" y="176"/>
      <point x="72" y="137" type="curve" smooth="yes"/>
      <point x="72" y="38"/>
      <point x="169" y="-34"/>
    </contour>
    <contour>
      <point x="457" y="-177" type="line"/>
      <point x="454" y="581" type="line"/>
      <point x="375" y="581" type="line"/>
      <point x="371" y="-124" type="line"/>
      <point x="447" y="-177" type="line"/>
    </contour>
    <contour>
      <point x="795" y="545" type="line"/>
      <point x="795" y="555" type="line"/>
      <point x="761" y="620" type="line"/>
      <point x="-28" y="620" type="line"/>
      <point x="-28" y="610" type="line"/>
      <point x="6" y="545" type="line"/>
    </contour>
  </outline>
</glyph>
<glyph name="dKh.half" format="2">
  <advance width="571"/>
  <outline>
    <contour>
      <point x="322" y="-20" type="line"/>
      <point x="373" y="22" type="line"/>
      <point x="156" y="246" type="line"/>
      <point x="155" y="235" type="line"/>
      <point x="227" y="247"/>
      <point x="268" y="303"/>
      <point x="268" y="464" type="curve" smooth="yes"/>
      <point x="268" y="492"/>
      <point x="267" y="536"/>
      <point x="262" y="576" type="curve"/>
      <point x="178" y="576" type="line"/>
      <point x="183" y="537"/>
      <point x="184" y="529"/>
      <point x="184" y="479" type="curve" smooth="yes"/>
      <point x="184" y="447"/>
      <point x="183" y="390"/>
      <point x="174" y="358" type="curve"/>
      <point x="186" y="367" type="line"/>
      <point x="163" y="370"/>
      <point x="119" y="374"/>
      <point x="97" y="374" type="curve" smooth="yes"/>
      <point x="61" y="374"/>
      <point x="46" y="364"/>
      <point x="46" y="343" type="curve" smooth="yes"/>
      <point x="46" y="318"/>
      <point x="63" y="286"/>
      <point x="114" y="223" type="curve" smooth="yes"/>
      <point x="312" y="-20" type="line"/>
    </contour>
    <contour>
      <point x="506" y="155" type="curve" smooth="yes"/>
      <point x="556" y="155"/>
      <point x="613" y="178"/>
      <point x="671" y="240" type="curve"/>
      <point x="640" y="312" type="line"/>
      <point x="562" y="233"/>
      <point x="512" y="217"/>
      <point x="475" y="217" type="curve" smooth="yes"/>
      <point x="433" y="217"/>
      <point x="399" y="237"/>
      <point x="399" y="292" type="curve" smooth="yes"/>
      <point x="399" y="356"/>
      <point x="447" y="389"/>
      <point x="505" y="389" type="curve" smooth="yes"/>
      <point x="558" y="389"/>
      <point x="606" y="362"/>
      <point x="640" y="324" type="curve"/>
      <point x="648" y="370" type="line"/>
      <point x="615" y="424"/>
      <point x="551" y="463"/>
      <point x="480" y="463" type="curve" smooth="yes"/>
      <point x="398" y="463"/>
      <point x="327" y="412"/>
      <point x="327" y="330" type="curve" smooth="yes"/>
      <point x="327" y="244"/>
      <point x="405" y="155"/>
    </contour>
    <contour>
      <point x="671" y="545" type="line"/>
      <point x="671" y="555" type="line"/>
      <point x="637" y="620" type="line"/>
      <point x="-28" y="620" type="line"/>
      <point x="-28" y="610" type="line"/>
      <point x="6" y="545" type="line"/>
    </contour>
  </outline>
</glyph>
<glyph name="dKhSha" format="2">
  <advance width="1289"/>
  <outline>
    <contour>
      <point x="971" y="-21" type="line"/>
      <point x="1022" y="21" type="line"/>
      <point x="825" y="223" type="line"/>
      <point x="812" y="241" type="line"/>
      <point x="775" y="268"/>
      <point x="731" y="288"/>
      <point x="694" y="288" type="curve" smooth="yes"/>
      <point x="665" y="288"/>
      <point x="658" y="277"/>
      <point x="658" y="261" type="curve" smooth="yes"/>
      <point x="658" y="221"/>
      <point x="706" y="166"/>
      <point x="776" y="166" type="curve" smooth="yes"/>
      <point x="839" y="166"/>
      <point x="997" y="212"/>
      <point x="997" y="333" type="curve" smooth="yes"/>
      <point x="997" y="407"/>
      <point x="932" y="505"/>
      <point x="822" y="505" type="curve" smooth="yes"/>
      <point x="782" y="505"/>
      <point x="718" y="492"/>
      <point x="654" y="453" type="curve"/>
      <point x="699" y="379" type="line"/>
      <point x="760" y="418"/>
      <point x="825" y="436"/>
      <point x="859" y="436" type="curve" smooth="yes"/>
      <point x="907" y="436"/>
      <point x="935" y="404"/>
      <point x="935" y="367" type="curve" smooth="yes"/>
      <point x="935" y="300"/>
      <point x="845" y="251"/>
      <point x="793" y="247" type="curve"/>
      <point x="779" y="208" type="line"/>
      <point x="961" y="-21" type="line"/>
    </contour>
    <contour>
      <point x="322" y="-20" type="line"/>
      <point x="373" y="22" type="line"/>
      <point x="156" y="246" type="line"/>
      <point x="155" y="235" type="line"/>
      <point x="228" y="249"/>
      <point x="268" y="300"/>
      <point x="268" y="471" type="curve" smooth="yes"/>
      <point x="268" y="487"/>
      <point x="267" y="544"/>
      <point x="263" y="569" type="curve"/>
      <point x="179" y="569" type="line"/>
      <point x="183" y="543"/>
      <point x="184" y="523"/>
      <point x="184" y="482" type="curve" smooth="yes"/>
      <point x="184" y="446"/>
      <point x="183" y="391"/>
      <point x="174" y="358" type="curve"/>
      <point x="186" y="367" type="line"/>
      <point x="163" y="370"/>
      <point x="119" y="374"/>
      <point x="97" y="374" type="curve" smooth="yes"/>
      <point x="61" y="374"/>
      <point x="46" y="364"/>
      <point x="46" y="342" type="curve" smooth="yes"/>
      <point x="46" y="319"/>
      <point x="65" y="283"/>
      <point x="114" y="223" type="curve" smooth="yes"/>
      <point x="312" y="-20" type="line"/>
    </contour>
    <contour>
      <point x="473" y="217" type="curve" smooth="yes"/>
      <point x="427" y="217"/>
      <point x="399" y="243"/>
      <point x="399" y="292" type="curve" smooth="yes"/>
      <point x="399" y="350"/>
      <point x="439" y="389"/>
      <point x="506" y="389" type="curve" smooth="yes"/>
      <point x="558" y="389"/>
      <point x="611" y="365"/>
      <point x="626" y="316" type="curve"/>
      <point x="604" y="272"/>
      <point x="540" y="217"/>
    </contour>
    <contour>
      <point x="507" y="155" type="curve" smooth="yes"/>
      <point x="595" y="155"/>
      <point x="668" y="224"/>
      <point x="687" y="287" type="curve"/>
      <point x="660" y="385"/>
      <point x="585" y="463"/>
      <point x="481" y="463" type="curve" smooth="yes"/>
      <point x="399" y="463"/>
      <point x="327" y="413"/>
      <point x="327" y="330" type="curve" smooth="yes"/>
      <point x="327" y="240"/>
      <point x="409" y="155"/>
    </contour>
    <contour>
      <point x="1317" y="545" type="line"/>
      <point x="1317" y="555" type="line"/>
      <point x="1283" y="620" type="line"/>
      <point x="-28" y="620" type="line"/>
      <point x="-28" y="610" type="line"/>
      <point x="6" y="545" type="line"/>
    </contour>
    <contour>
      <point x="876" y="452" type="line"/>
      <point x="875" y="581" type="line"/>
      <point x="798" y="581" type="line"/>
      <point x="798" y="452" type="line"/>
    </contour>
    <contour>
      <point x="1202" y="-15" type="line"/>
      <point x="1200" y="581" type="line"/>
      <point x="1116" y="581" type="line"/>
      <point x="1112" y="37" type="line"/>
      <point x="1192" y="-15" type="line"/>
    </contour>
  </outline>
</glyph>
<glyph name="dL.half" format="2">
  <advance width="456"/>
  <outline>
    <contour>
      <point x="264" y="-10" type="line"/>
      <point x="307" y="25" type="line"/>
      <point x="168" y="134"/>
      <point x="129" y="192"/>
      <point x="129" y="265" type="curve" smooth="yes"/>
      <point x="129" y="336"/>
      <point x="166" y="374"/>
      <point x="219" y="374" type="curve" smooth="yes"/>
      <point x="254" y="374"/>
      <point x="286" y="357"/>
      <point x="308" y="332" type="curve"/>
      <point x="330" y="363" type="line"/>
      <point x="293" y="409"/>
      <point x="250" y="448"/>
      <point x="184" y="448" type="curve" smooth="yes"/>
      <point x="99" y="448"/>
      <point x="49" y="382"/>
      <point x="49" y="299" type="curve" smooth="yes"/>
      <point x="49" y="193"/>
      <point x="130" y="110"/>
      <point x="254" y="-10" type="curve"/>
    </contour>
    <contour>
      <point x="336" y="219" type="line"/>
      <point x="387" y="329"/>
      <point x="423" y="371"/>
      <point x="478" y="371" type="curve" smooth="yes"/>
      <point x="486" y="371"/>
      <point x="503" y="370"/>
      <point x="523" y="355" type="curve"/>
      <point x="543" y="379" type="line"/>
      <point x="502" y="423"/>
      <point x="471" y="436"/>
      <point x="439" y="436" type="curve" smooth="yes"/>
      <point x="345" y="436"/>
      <point x="286" y="321"/>
      <point x="263" y="264" type="curve"/>
    </contour>
    <contour>
      <point x="556" y="545" type="line"/>
      <point x="556" y="555" type="line"/>
      <point x="522" y="620" type="line"/>
      <point x="-28" y="620" type="line"/>
      <point x="-28" y="610" type="line"/>
      <point x="6" y="545" type="line"/>
    </contour>
  </outline>
</glyph>
<glyph name="dLBh.half" format="2">
  <advance width="804"/>
  <outline>
    <component base="dBh.half" xOffset="344"/>
    <contour>
      <point x="340" y="185" type="line"/>
      <point x="385" y="286"/>
      <point x="424" y="329"/>
      <point x="468" y="329" type="curve" smooth="yes"/>
      <point x="491" y="329"/>
      <point x="509" y="316"/>
      <point x="525" y="293" type="curve"/>
      <point x="574" y="300" type="line"/>
      <point x="516" y="377"/>
      <point x="465" y="394"/>
      <point x="432" y="394" type="curve" smooth="yes"/>
      <point x="391" y="394"/>
      <point x="355" y="368"/>
      <point x="327" y="334" type="curve"/>
      <point x="291" y="375"/>
      <point x="249" y="415"/>
      <point x="187" y="415" type="curve" smooth="yes"/>
      <point x="101" y="415"/>
      <point x="49" y="343"/>
      <point x="49" y="260" type="curve" smooth="yes"/>
      <point x="49" y="154"/>
      <point x="130" y="73"/>
      <point x="246" y="-41" type="curve"/>
      <point x="256" y="-41" type="line"/>
      <point x="298" y="-7" type="line"/>
      <point x="165" y="98"/>
      <point x="129" y="153"/>
      <point x="129" y="226" type="curve" smooth="yes"/>
      <point x="129" y="297"/>
      <point x="168" y="341"/>
      <point x="222" y="341" type="curve" smooth="yes"/>
      <point x="254" y="341"/>
      <point x="283" y="325"/>
      <point x="304" y="303" type="curve"/>
      <point x="286" y="275"/>
      <point x="272" y="246"/>
      <point x="263" y="223" type="curve"/>
    </contour>
    <contour>
      <point x="455" y="545" type="line"/>
      <point x="482" y="620" type="line"/>
      <point x="-28" y="620" type="line"/>
      <point x="-28" y="610" type="line"/>
      <point x="6" y="545" type="line"/>
    </contour>
  </outline>
</glyph>
<glyph name="dLKha" format="2">
  <advance width="1265"/>
  <outline>
    <component base="dKha" xOffset="450"/>
    <contour>
      <point x="336" y="224" type="line"/>
      <point x="383" y="331"/>
      <point x="427" y="376"/>
      <point x="472" y="376" type="curve" smooth="yes"/>
      <point x="494" y="376"/>
      <point x="513" y="365"/>
      <point x="529" y="345" type="curve"/>
      <point x="559" y="366" type="line"/>
      <point x="503" y="434"/>
      <point x="465" y="441"/>
      <point x="437" y="441" type="curve" smooth="yes"/>
      <point x="392" y="441"/>
      <point x="354" y="412"/>
      <point x="324" y="376" type="curve"/>
      <point x="289" y="416"/>
      <point x="248" y="454"/>
      <point x="187" y="454" type="curve" smooth="yes"/>
      <point x="101" y="454"/>
      <point x="49" y="382"/>
      <point x="49" y="299" type="curve" smooth="yes"/>
      <point x="49" y="193"/>
      <point x="130" y="110"/>
      <point x="254" y="-10" type="curve"/>
      <point x="264" y="-10" type="line"/>
      <point x="307" y="25" type="line"/>
      <point x="168" y="134"/>
      <point x="129" y="192"/>
      <point x="129" y="265" type="curve" smooth="yes"/>
      <point x="129" y="336"/>
      <point x="168" y="380"/>
      <point x="222" y="380" type="curve" smooth="yes"/>
      <point x="253" y="380"/>
      <point x="281" y="365"/>
      <point x="302" y="344" type="curve"/>
      <point x="285" y="317"/>
      <point x="274" y="293"/>
      <point x="263" y="269" type="curve"/>
    </contour>
    <contour>
      <point x="556" y="545" type="line"/>
      <point x="556" y="555" type="line"/>
      <point x="522" y="620" type="line"/>
      <point x="-28" y="620" type="line"/>
      <point x="-28" y="610" type="line"/>
      <point x="6" y="545" type="line"/>
    </contour>
  </outline>
</glyph>
<glyph name="dMBhRa" format="2">
  <advance width="984"/>
  <outline>
    <component base="dBhRa" xOffset="258"/>
    <contour>
      <point x="194" y="151" type="curve" smooth="yes"/>
      <point x="209" y="151"/>
      <point x="217" y="159"/>
      <point x="217" y="176" type="curve" smooth="yes"/>
      <point x="215" y="591" type="line"/>
      <point x="133" y="591" type="line"/>
      <point x="132" y="248" type="line"/>
      <point x="477" y="248" type="line"/>
      <point x="477" y="323" type="line"/>
      <point x="78" y="323" type="line" smooth="yes"/>
      <point x="60" y="323"/>
      <point x="53" y="312"/>
      <point x="53" y="300" type="curve" smooth="yes"/>
      <point x="53" y="249"/>
      <point x="153" y="151"/>
    </contour>
    <contour>
      <point x="397" y="545" type="line"/>
      <point x="397" y="555" type="line"/>
      <point x="363" y="620" type="line"/>
      <point x="-28" y="620" type="line"/>
      <point x="-28" y="610" type="line"/>
      <point x="6" y="545" type="line"/>
    </contour>
  </outline>
</glyph>
<glyph name="dMMa" format="2">
  <advance width="903"/>
  <outline>
    <contour>
      <point x="764" y="310" type="line"/>
      <point x="78" y="310" type="line" smooth="yes"/>
      <point x="60" y="310"/>
      <point x="53" y="299"/>
      <point x="53" y="287" type="curve" smooth="yes"/>
      <point x="53" y="236"/>
      <point x="153" y="138"/>
      <point x="194" y="138" type="curve" smooth="yes"/>
      <point x="209" y="138"/>
      <point x="217" y="146"/>
      <point x="217" y="163" type="curve" smooth="yes"/>
      <point x="215" y="591" type="line"/>
      <point x="133" y="591" type="line"/>
      <point x="132" y="235" type="line"/>
      <point x="377" y="235" type="line"/>
      <point x="359" y="246" type="line"/>
      <point x="386" y="194"/>
      <point x="455" y="133"/>
      <point x="488" y="133" type="curve" smooth="yes"/>
      <point x="503" y="133"/>
      <point x="511" y="141"/>
      <point x="511" y="158" type="curve" smooth="yes"/>
      <point x="509" y="591" type="line"/>
      <point x="427" y="591" type="line"/>
      <point x="426" y="235" type="line"/>
      <point x="763" y="235" type="line"/>
    </contour>
    <contour>
      <point x="931" y="545" type="line"/>
      <point x="931" y="555" type="line"/>
      <point x="897" y="620" type="line"/>
      <point x="-28" y="620" type="line"/>
      <point x="-28" y="610" type="line"/>
      <point x="6" y="545" type="line"/>
    </contour>
    <contour>
      <point x="726" y="42" type="line"/>
      <point x="806" y="-10" type="line"/>
      <point x="816" y="-10" type="line"/>
      <point x="814" y="591" type="line"/>
      <point x="730" y="591" type="line"/>
    </contour>
  </outline>
</glyph>
<glyph name="dMSa" format="2">
  <advance width="1011"/>
  <outline>
    <contour>
      <point x="648" y="-20" type="line"/>
      <point x="699" y="22" type="line"/>
      <point x="483" y="246" type="line"/>
      <point x="478" y="234" type="line"/>
      <point x="534" y="244"/>
      <point x="565" y="260"/>
      <point x="587" y="319" type="curve" smooth="yes"/>
      <point x="599" y="352"/>
      <point x="605" y="406"/>
      <point x="605" y="471" type="curve" smooth="yes"/>
      <point x="605" y="487"/>
      <point x="603" y="554"/>
      <point x="599" y="567" type="curve"/>
      <point x="519" y="564" type="line"/>
      <point x="520" y="553"/>
      <point x="523" y="523"/>
      <point x="523" y="482" type="curve" smooth="yes"/>
      <point x="523" y="446"/>
      <point x="522" y="391"/>
      <point x="513" y="358" type="curve"/>
      <point x="524" y="367" type="line"/>
      <point x="503" y="370"/>
      <point x="451" y="374"/>
      <point x="429" y="374" type="curve" smooth="yes"/>
      <point x="393" y="374"/>
      <point x="378" y="364"/>
      <point x="378" y="342" type="curve" smooth="yes"/>
      <point x="378" y="303"/>
      <point x="406" y="263"/>
      <point x="461" y="196" type="curve" smooth="yes"/>
      <point x="638" y="-20" type="line"/>
    </contour>
    <contour>
      <point x="194" y="138" type="curve" smooth="yes"/>
      <point x="209" y="138"/>
      <point x="217" y="146"/>
      <point x="217" y="163" type="curve"/>
      <point x="217" y="273" type="line"/>
      <point x="215" y="581" type="line"/>
      <point x="133" y="581" type="line"/>
      <point x="132" y="235" type="line"/>
      <point x="466" y="235" type="line"/>
      <point x="420" y="310" type="line"/>
      <point x="78" y="310" type="line" smooth="yes"/>
      <point x="60" y="310"/>
      <point x="53" y="299"/>
      <point x="53" y="287" type="curve" smooth="yes"/>
      <point x="53" y="236"/>
      <point x="153" y="138"/>
    </contour>
    <contour>
      <point x="746" y="219" type="curve" smooth="yes"/>
      <point x="785" y="219"/>
      <point x="814" y="227"/>
      <point x="851" y="247" type="curve"/>
      <point x="843" y="346" type="line"/>
      <point x="826" y="324"/>
      <point x="763" y="296"/>
      <point x="710" y="296" type="curve" smooth="yes"/>
      <point x="661" y="296"/>
      <point x="608" y="320"/>
      <point x="586" y="337" type="curve"/>
      <point x="563" y="304" type="line"/>
      <point x="644" y="230"/>
      <point x="712" y="219"/>
    </contour>
    <contour>
      <point x="1039" y="545" type="line"/>
      <point x="1039" y="555" type="line"/>
      <point x="1005" y="620" type="line"/>
      <point x="-28" y="620" type="line"/>
      <point x="-28" y="610" type="line"/>
      <point x="6" y="545" type="line"/>
    </contour>
    <contour>
      <point x="924" y="-10" type="line"/>
      <point x="922" y="581" type="line"/>
      <point x="838" y="581" type="line"/>
      <point x="834" y="42" type="line"/>
      <point x="914" y="-10" type="line"/>
    </contour>
  </outline>
</glyph>
<glyph name="dNTa" format="2">
  <advance width="898"/>
  <outline>
    <component base="dTa" xOffset="325"/>
    <contour>
      <point x="475" y="398" type="line"/>
      <point x="362" y="400"/>
      <point x="169" y="404"/>
      <point x="132" y="404" type="curve" smooth="yes"/>
      <point x="80" y="404"/>
      <point x="48" y="400"/>
      <point x="48" y="363" type="curve" smooth="yes"/>
      <point x="48" y="301"/>
      <point x="127" y="222"/>
      <point x="184" y="222" type="curve" smooth="yes"/>
      <point x="215" y="222"/>
      <point x="219" y="249"/>
      <point x="219" y="327" type="curve"/>
      <point x="474" y="327" type="line"/>
    </contour>
    <contour>
      <point x="593" y="545" type="line"/>
      <point x="593" y="555" type="line"/>
      <point x="559" y="620" type="line"/>
      <point x="-28" y="620" type="line"/>
      <point x="-28" y="610" type="line"/>
      <point x="6" y="545" type="line"/>
    </contour>
  </outline>
</glyph>
<glyph name="dNa.post" format="2">
  <advance width="271"/>
  <outline>
    <contour>
      <point x="-33" y="-40" type="curve" smooth="yes"/>
      <point x="-11" y="-40"/>
      <point x="-1" y="-30"/>
      <point x="-1" y="-16" type="curve" smooth="yes"/>
      <point x="-1" y="-4"/>
      <point x="-9" y="14"/>
      <point x="-35" y="68" type="curve"/>
      <point x="95" y="180" type="line"/>
      <point x="118" y="164" type="line"/>
      <point x="118" y="297" type="line"/>
      <point x="-112" y="106" type="line" smooth="yes"/>
      <point x="-151" y="74"/>
      <point x="-170" y="57"/>
      <point x="-170" y="37" type="curve" smooth="yes"/>
      <point x="-170" y="-3"/>
      <point x="-71" y="-40"/>
    </contour>
    <contour>
      <point x="184" y="-45" type="line"/>
      <point x="182" y="581" type="line"/>
      <point x="98" y="581" type="line"/>
      <point x="95" y="222" type="line"/>
      <point x="98" y="216" type="line"/>
      <point x="94" y="7" type="line"/>
      <point x="174" y="-45" type="line"/>
    </contour>
    <contour>
      <point x="299" y="545" type="line"/>
      <point x="299" y="555" type="line"/>
      <point x="265" y="620" type="line"/>
      <point x="-100" y="620" type="line"/>
      <point x="-100" y="610" type="line"/>
      <point x="-66" y="545" type="line"/>
    </contour>
  </outline>
</glyph>
<glyph name="dNine.sups" format="2">
  <advance width="421"/>
  <outline>
    <contour>
      <point x="353" y="218" type="line"/>
      <point x="384" y="234"/>
      <point x="401" y="254"/>
      <point x="401" y="273" type="curve" smooth="yes"/>
      <point x="401" y="307"/>
      <point x="343" y="380"/>
      <point x="234" y="485" type="curve" smooth="yes"/>
      <point x="188" y="529"/>
      <point x="172" y="544"/>
      <point x="172" y="575" type="curve" smooth="yes"/>
      <point x="172" y="625"/>
      <point x="214" y="658"/>
      <point x="255" y="658" type="curve" smooth="yes"/>
      <point x="289" y="658"/>
      <point x="314" y="635"/>
      <point x="314" y="601" type="curve" smooth="yes"/>
      <point x="314" y="551"/>
      <point x="263" y="509"/>
      <point x="195" y="501" type="curve"/>
      <point x="250" y="449" type="line"/>
      <point x="316" y="461"/>
      <point x="382" y="514"/>
      <point x="382" y="577" type="curve" smooth="yes"/>
      <point x="382" y="642"/>
      <point x="313" y="717"/>
      <point x="227" y="717" type="curve" smooth="yes"/>
      <point x="151" y="717"/>
      <point x="102" y="659"/>
      <point x="102" y="605" type="curve" smooth="yes"/>
      <point x="102" y="561"/>
      <point x="128" y="531"/>
      <point x="212" y="449" type="curve" smooth="yes"/>
      <point x="324" y="339"/>
      <point x="326" y="327"/>
      <point x="326" y="310" type="curve" smooth="yes"/>
      <point x="326" y="292"/>
      <point x="318" y="282"/>
      <point x="302" y="273" type="curve"/>
    </contour>
  </outline>
</glyph>
<glyph name="dNnRa" format="2">
  <advance width="713"/>
  <outline>
    <contour>
      <point x="273" y="178" type="curve" smooth="yes"/>
      <point x="371" y="178"/>
      <point x="416" y="257"/>
      <point x="416" y="328" type="curve" smooth="yes"/>
      <point x="416" y="593" type="line"/>
      <point x="332" y="593" type="line"/>
      <point x="332" y="346" type="line" smooth="yes"/>
      <point x="332" y="277"/>
      <point x="287" y="243"/>
      <point x="236" y="243" type="curve" smooth="yes"/>
      <point x="192" y="243"/>
      <point x="161" y="271"/>
      <point x="161" y="335" type="curve" smooth="yes"/>
      <point x="159" y="593" type="line"/>
      <point x="74" y="593" type="line"/>
      <point x="74" y="527"/>
      <point x="73" y="460"/>
      <point x="73" y="406" type="curve" smooth="yes"/>
      <point x="73" y="391"/>
      <point x="73" y="375"/>
      <point x="74" y="357" type="curve" smooth="yes"/>
      <point x="78" y="288"/>
      <point x="172" y="178"/>
    </contour>
    <contour>
      <point x="570" y="197" type="line"/>
      <point x="570" y="301" type="line"/>
      <point x="275" y="44" type="line"/>
      <point x="338" y="-8" type="line"/>
    </contour>
    <contour>
      <point x="626" y="-15" type="line"/>
      <point x="624" y="593" type="line"/>
      <point x="540" y="593" type="line"/>
      <point x="536" y="37" type="line"/>
      <point x="616" y="-15" type="line"/>
    </contour>
    <contour>
      <point x="741" y="545" type="line"/>
      <point x="741" y="555" type="line"/>
      <point x="707" y="620" type="line"/>
      <point x="-28" y="620" type="line"/>
      <point x="-28" y="610" type="line"/>
      <point x="6" y="545" type="line"/>
    </contour>
  </outline>
</glyph>
<glyph name="dNy.half" format="2">
  <advance width="561"/>
  <outline>
    <contour>
      <point x="326" y="117" type="curve" smooth="yes"/>
      <point x="414" y="117"/>
      <point x="493" y="165"/>
      <point x="493" y="261" type="curve" smooth="yes"/>
      <point x="493" y="361"/>
      <point x="422" y="470"/>
      <point x="315" y="470" type="curve" smooth="yes"/>
      <point x="280" y="470"/>
      <point x="234" y="459"/>
      <point x="190" y="437" type="curve"/>
      <point x="233" y="360" type="line"/>
      <point x="269" y="377"/>
      <point x="313" y="394"/>
      <point x="351" y="394" type="curve" smooth="yes"/>
      <point x="401" y="394"/>
      <point x="426" y="364"/>
      <point x="426" y="311" type="curve" smooth="yes"/>
      <point x="426" y="227"/>
      <point x="367" y="193"/>
      <point x="304" y="193" type="curve" smooth="yes"/>
      <point x="206" y="193"/>
      <point x="136" y="278"/>
      <point x="69" y="393" type="curve"/>
      <point x="31" y="370" type="line"/>
      <point x="139" y="181"/>
      <point x="224" y="117"/>
    </contour>
    <contour>
      <point x="581" y="217" type="curve" smooth="yes"/>
      <point x="588" y="217"/>
      <point x="621" y="220"/>
      <point x="656" y="240" type="curve"/>
      <point x="626" y="325" type="line"/>
      <point x="594" y="305"/>
      <point x="565" y="295"/>
      <point x="537" y="295" type="curve" smooth="yes"/>
      <point x="509" y="295"/>
      <point x="494" y="305"/>
      <point x="478" y="314" type="curve"/>
      <point x="481" y="249" type="line"/>
      <point x="497" y="257" type="line"/>
      <point x="513" y="241"/>
      <point x="545" y="217"/>
    </contour>
    <contour>
      <point x="661" y="545" type="line"/>
      <point x="661" y="555" type="line"/>
      <point x="627" y="620" type="line"/>
      <point x="-28" y="620" type="line"/>
      <point x="-28" y="610" type="line"/>
      <point x="6" y="545" type="line"/>
    </contour>
  </outline>
</glyph>
<glyph name="dNyChVa" format="2">
  <advance width="1235"/>
  <outline>
    <component base="dChVa" xOffset="490"/>
    <contour>
      <point x="321" y="117" type="curve" smooth="yes"/>
      <point x="410" y="117"/>
      <point x="488" y="167"/>
      <point x="488" y="259" type="curve" smooth="yes"/>
      <point x="488" y="370"/>
      <point x="411" y="470"/>
      <point x="310" y="470" type="curve" smooth="yes"/>
      <point x="275" y="470"/>
      <point x="229" y="459"/>
      <point x="185" y="437" type="curve"/>
      <point x="228" y="360" type="line"/>
      <point x="264" y="377"/>
      <point x="308" y="394"/>
      <point x="346" y="394" type="curve" smooth="yes"/>
      <point x="396" y="394"/>
      <point x="421" y="364"/>
      <point x="421" y="311" type="curve" smooth="yes"/>
      <point x="421" y="227"/>
      <point x="362" y="193"/>
      <point x="299" y="193" type="curve" smooth="yes"/>
      <point x="201" y="193"/>
      <point x="131" y="278"/>
      <point x="64" y="393" type="curve"/>
      <point x="26" y="370" type="line"/>
      <point x="134" y="181"/>
      <point x="219" y="117"/>
    </contour>
    <contour>
      <point x="575" y="222" type="curve" smooth="yes"/>
      <point x="593" y="222"/>
      <point x="613" y="227"/>
      <point x="634" y="241" type="curve"/>
      <point x="643" y="346" type="line"/>
      <point x="594" y="309"/>
      <point x="563" y="297"/>
      <point x="534" y="297" type="curve" smooth="yes"/>
      <point x="513" y="297"/>
      <point x="492" y="305"/>
      <point x="469" y="318" type="curve"/>
      <point x="476" y="252" type="line"/>
      <point x="492" y="260" type="line"/>
      <point x="515" y="240"/>
      <point x="542" y="222"/>
    </contour>
    <contour>
      <point x="656" y="545" type="line"/>
      <point x="656" y="555" type="line"/>
      <point x="622" y="620" type="line"/>
      <point x="-28" y="620" type="line"/>
      <point x="-28" y="610" type="line"/>
      <point x="6" y="545" type="line"/>
    </contour>
  </outline>
</glyph>
<glyph name="dNyRa" format="2">
  <advance width="785"/>
  <outline>
    <contour>
      <point x="321" y="127" type="curve" smooth="yes"/>
      <point x="409" y="127"/>
      <point x="488" y="175"/>
      <point x="488" y="271" type="curve" smooth="yes"/>
      <point x="488" y="380"/>
      <point x="410" y="480"/>
      <point x="310" y="480" type="curve" smooth="yes"/>
      <point x="275" y="480"/>
      <point x="229" y="469"/>
      <point x="185" y="447" type="curve"/>
      <point x="228" y="370" type="line"/>
      <point x="264" y="387"/>
      <point x="308" y="404"/>
      <point x="346" y="404" type="curve" smooth="yes"/>
      <point x="396" y="404"/>
      <point x="421" y="374"/>
      <point x="421" y="321" type="curve" smooth="yes"/>
      <point x="421" y="237"/>
      <point x="362" y="203"/>
      <point x="299" y="203" type="curve" smooth="yes"/>
      <point x="201" y="203"/>
      <point x="131" y="288"/>
      <point x="64" y="403" type="curve"/>
      <point x="26" y="380" type="line"/>
      <point x="134" y="191"/>
      <point x="219" y="127"/>
    </contour>
    <contour>
      <point x="641" y="151" type="line"/>
      <point x="641" y="254" type="line"/>
      <point x="357" y="7" type="line"/>
      <point x="420" y="-45" type="line"/>
    </contour>
    <contour>
      <point x="584" y="227" type="curve" smooth="yes"/>
      <point x="597" y="227"/>
      <point x="613" y="230"/>
      <point x="622" y="235" type="curve"/>
      <point x="623" y="342" type="line"/>
      <point x="598" y="318"/>
      <point x="573" y="305"/>
      <point x="537" y="305" type="curve" smooth="yes"/>
      <point x="506" y="305"/>
      <point x="490" y="313"/>
      <point x="473" y="324" type="curve"/>
      <point x="476" y="259" type="line"/>
      <point x="492" y="267" type="line"/>
      <point x="509" y="251"/>
      <point x="544" y="227"/>
    </contour>
    <contour>
      <point x="698" y="-30" type="line"/>
      <point x="696" y="571" type="line"/>
      <point x="612" y="571" type="line"/>
      <point x="608" y="22" type="line"/>
      <point x="688" y="-30" type="line"/>
    </contour>
    <contour>
      <point x="813" y="545" type="line"/>
      <point x="813" y="555" type="line"/>
      <point x="779" y="620" type="line"/>
      <point x="-28" y="620" type="line"/>
      <point x="-28" y="610" type="line"/>
      <point x="6" y="545" type="line"/>
    </contour>
  </outline>
</glyph>
<glyph name="dOne.ss04" format="2">
  <advance width="500"/>
  <outline>
    <contour>
      <point x="325" y="37" type="line"/>
      <point x="405" y="-15" type="line"/>
      <point x="415" y="-15" type="line"/>
      <point x="413" y="367" type="line" smooth="yes"/>
      <point x="412" y="508"/>
      <point x="304" y="598"/>
      <point x="208" y="598" type="curve" smooth="yes"/>
      <point x="116" y="598"/>
      <point x="50" y="535"/>
      <point x="50" y="460" type="curve" smooth="yes"/>
      <point x="50" y="377"/>
      <point x="139" y="278"/>
      <point x="241" y="278" type="curve" smooth="yes"/>
      <point x="276" y="278"/>
      <point x="311" y="290"/>
      <point x="345" y="315" type="curve"/>
      <point x="346" y="419" type="line"/>
      <point x="300" y="371"/>
      <point x="256" y="346"/>
      <point x="208" y="346" type="curve" smooth="yes"/>
      <point x="150" y="346"/>
      <point x="127" y="381"/>
      <point x="127" y="423" type="curve" smooth="yes"/>
      <point x="127" y="487"/>
      <point x="179" y="530"/>
      <point x="240" y="530" type="curve" smooth="yes"/>
      <point x="312" y="530"/>
      <point x="333" y="471"/>
      <point x="332" y="394" type="curve" smooth="yes"/>
    </contour>
  </outline>
</glyph>
<glyph name="dPhSha" format="2">
  <advance width="1266"/>
  <outline>
    <component base="dSha" xOffset="587"/>
    <contour>
      <point x="273" y="168" type="curve" smooth="yes"/>
      <point x="321" y="168"/>
      <point x="357" y="197"/>
      <point x="404" y="225" type="curve" smooth="yes"/>
      <point x="478" y="269"/>
      <point x="527" y="315"/>
      <point x="578" y="315" type="curve" smooth="yes"/>
      <point x="599" y="315"/>
      <point x="619" y="305"/>
      <point x="637" y="271" type="curve"/>
      <point x="676" y="282" type="line"/>
      <point x="632" y="375"/>
      <point x="580" y="389"/>
      <point x="548" y="389" type="curve" smooth="yes"/>
      <point x="510" y="389"/>
      <point x="474" y="367"/>
      <point x="420" y="336" type="curve" smooth="yes"/>
      <point x="392" y="320" type="line" smooth="yes"/>
      <point x="313" y="275"/>
      <point x="278" y="233"/>
      <point x="227" y="233" type="curve" smooth="yes"/>
      <point x="197" y="233"/>
      <point x="162" y="262"/>
      <point x="162" y="325" type="curve" smooth="yes"/>
      <point x="160" y="582" type="line"/>
      <point x="75" y="582" type="line"/>
      <point x="75" y="522"/>
      <point x="74" y="447"/>
      <point x="74" y="396" type="curve" smooth="yes"/>
      <point x="74" y="381"/>
      <point x="74" y="365"/>
      <point x="75" y="347" type="curve" smooth="yes"/>
      <point x="77" y="276"/>
      <point x="178" y="168"/>
    </contour>
    <contour>
      <point x="452" y="-10" type="line"/>
      <point x="449" y="581" type="line"/>
      <point x="367" y="581" type="line"/>
      <point x="362" y="44" type="line"/>
      <point x="442" y="-10" type="line"/>
    </contour>
    <contour>
      <point x="672" y="545" type="line"/>
      <point x="672" y="555" type="line"/>
      <point x="638" y="620" type="line"/>
      <point x="-28" y="620" type="line"/>
      <point x="-28" y="610" type="line"/>
      <point x="6" y="545" type="line"/>
    </contour>
  </outline>
</glyph>
<glyph name="dRa_dSignVocalicR" format="2">
  <advance width="811"/>
  <outline>
    <contour>
      <point x="379" y="243" type="line"/>
      <point x="398" y="221" type="line"/>
      <point x="416" y="354" type="line"/>
      <point x="84" y="138" type="line"/>
      <point x="143" y="80" type="line"/>
    </contour>
    <contour>
      <point x="399" y="340" type="line"/>
      <point x="279" y="434"/>
      <point x="249" y="470"/>
      <point x="190" y="470" type="curve" smooth="yes"/>
      <point x="148" y="470"/>
      <point x="94" y="442"/>
      <point x="35" y="417" type="curve"/>
      <point x="35" y="412" type="line"/>
      <point x="88" y="343" type="line"/>
      <point x="133" y="366"/>
      <point x="186" y="397"/>
      <point x="221" y="397" type="curve" smooth="yes"/>
      <point x="265" y="397"/>
      <point x="309" y="355"/>
      <point x="398" y="291" type="curve"/>
    </contour>
    <contour>
      <point x="468" y="-10" type="line"/>
      <point x="466" y="581" type="line"/>
      <point x="382" y="581" type="line"/>
      <point x="378" y="42" type="line"/>
      <point x="458" y="-10" type="line"/>
    </contour>
    <contour>
      <point x="595" y="22" type="line"/>
      <point x="722" y="41"/>
      <point x="772" y="89"/>
      <point x="772" y="157" type="curve" smooth="yes"/>
      <point x="772" y="208"/>
      <point x="741" y="266"/>
      <point x="680" y="329" type="curve"/>
      <point x="637" y="309" type="line"/>
      <point x="683" y="262"/>
      <point x="704" y="227"/>
      <point x="704" y="195" type="curve" smooth="yes"/>
      <point x="704" y="139"/>
      <point x="646" y="113"/>
      <point x="542" y="96" type="curve"/>
      <point x="542" y="91" type="line"/>
    </contour>
    <contour>
      <point x="528" y="274" type="curve" smooth="yes"/>
      <point x="593" y="274"/>
      <point x="633" y="289"/>
      <point x="670" y="306" type="curve" smooth="yes"/>
      <point x="704" y="321"/>
      <point x="723" y="352"/>
      <point x="723" y="377" type="curve" smooth="yes"/>
      <point x="723" y="426"/>
      <point x="651" y="468"/>
      <point x="609" y="468" type="curve" smooth="yes"/>
      <point x="588" y="468"/>
      <point x="575" y="460"/>
      <point x="575" y="436" type="curve" smooth="yes"/>
      <point x="575" y="416"/>
      <point x="584" y="396"/>
      <point x="599" y="368" type="curve"/>
      <point x="574" y="346"/>
      <point x="519" y="324"/>
      <point x="452" y="329" type="curve"/>
      <point x="452" y="281" type="line"/>
      <point x="479" y="275"/>
      <point x="505" y="274"/>
    </contour>
    <contour>
      <point x="839" y="545" type="line"/>
      <point x="839" y="555" type="line"/>
      <point x="805" y="620" type="line"/>
      <point x="-28" y="620" type="line"/>
      <point x="-28" y="610" type="line"/>
      <point x="6" y="545" type="line"/>
    </contour>
    <contour>
      <point x="452" y="607" type="line"/>
      <point x="403" y="665"/>
      <point x="372" y="705"/>
      <point x="372" y="757" type="curve" smooth="yes"/>
      <point x="372" y="804"/>
      <point x="400" y="840"/>
      <point x="465" y="840" type="curve" smooth="yes"/>
      <point x="491" y="840"/>
      <point x="516" y="833"/>
      <point x="538" y="824" type="curve"/>
      <point x="542" y="830" type="line"/>
      <point x="523" y="884"/>
      <point x="485" y="911"/>
      <point x="427" y="911" type="curve" smooth="yes"/>
      <point x="338" y="911"/>
      <point x="300" y="850"/>
      <point x="300" y="789" type="curve" smooth="yes"/>
      <point x="300" y="725"/>
      <point x="339" y="668"/>
      <point x="399" y="609" type="curve"/>
    </contour>
  </outline>
</glyph>
<glyph name="dRakar" format="2">
  <outline>
    <contour>
      <point x="-357" y="-192" type="line"/>
      <point x="-231" y="-87" type="line" smooth="yes"/>
      <point x="-220" y="-78"/>
      <point x="-214" y="-77"/>
      <point x="-209" y="-77" type="curve" smooth="yes"/>
      <point x="-201" y="-77"/>
      <point x="-194" y="-81"/>
      <point x="-182" y="-91" type="curve" smooth="yes"/>
      <point x="-136" y="-131"/>
      <point x="-76" y="-189"/>
      <point x="-44" y="-223" type="curve"/>
      <point x="-37" y="-223" type="line"/>
      <point x="-6" y="-188" type="line"/>
      <point x="-50" y="-149"/>
      <point x="-138" y="-72"/>
      <point x="-194" y="-25" type="curve" smooth="yes"/>
      <point x="-208" y="-14"/>
      <point x="-218" y="-6"/>
      <point x="-230" y="-6" type="curve" smooth="yes"/>
      <point x="-238" y="-6"/>
      <point x="-246" y="-9"/>
      <point x="-256" y="-17" type="curve" smooth="yes"/>
      <point x="-408" y="-137" type="line"/>
    </contour>
  </outline>
</glyph>
<glyph name="dRakarSignU" format="2">
  <outline>
    <contour>
      <point x="-357" y="-192" type="line"/>
      <point x="-231" y="-87" type="line" smooth="yes"/>
      <point x="-220" y="-78"/>
      <point x="-214" y="-77"/>
      <point x="-209" y="-77" type="curve" smooth="yes"/>
      <point x="-201" y="-77"/>
      <point x="-194" y="-81"/>
      <point x="-182" y="-91" type="curve" smooth="yes"/>
      <point x="-136" y="-131"/>
      <point x="-76" y="-189"/>
      <point x="-44" y="-223" type="curve"/>
      <point x="-37" y="-223" type="line"/>
      <point x="-6" y="-188" type="line"/>
      <point x="-50" y="-149"/>
      <point x="-138" y="-72"/>
      <point x="-194" y="-25" type="curve" smooth="yes"/>
      <point x="-208" y="-14"/>
      <point x="-218" y="-6"/>
      <point x="-230" y="-6" type="curve" smooth="yes"/>
      <point x="-238" y="-6"/>
      <point x="-246" y="-9"/>
      <point x="-256" y="-17" type="curve" smooth="yes"/>
      <point x="-408" y="-137" type="line"/>
    </contour>
    <contour>
      <point x="-246" y="-295" type="line"/>
      <point x="-224" y="-277"/>
      <point x="-195" y="-248"/>
      <point x="-157" y="-248" type="curve" smooth="yes"/>
      <point x="-130" y="-248"/>
      <point x="-106" y="-262"/>
      <point x="-106" y="-294" type="curve" smooth="yes"/>
      <point x="-106" y="-334"/>
      <point x="-142" y="-366"/>
      <point x="-205" y="-366" type="curve" smooth="yes"/>
      <point x="-278" y="-366"/>
      <point x="-342" y="-321"/>
      <point x="-441" y="-195" type="curve"/>
      <point x="-448" y="-195" type="line"/>
      <point x="-483" y="-237" type="line"/>
      <point x="-433" y="-295"/>
      <point x="-293" y="-433"/>
      <point x="-171" y="-433" type="curve" smooth="yes"/>
      <point x="-103" y="-433"/>
      <point x="-46" y="-390"/>
      <point x="-46" y="-325" type="curve" smooth="yes"/>
      <point x="-46" y="-254"/>
      <point x="-112" y="-188"/>
      <point x="-192" y="-188" type="curve" smooth="yes"/>
      <point x="-236" y="-188"/>
      <point x="-268" y="-206"/>
      <point x="-299" y="-235" type="curve"/>
    </contour>
  </outline>
</glyph>
<glyph name="dSR.half" format="2">
  <advance width="442"/>
  <outline>
    <contour>
      <point x="316" y="-20" type="line"/>
      <point x="366" y="21" type="line"/>
      <point x="149" y="255" type="line"/>
      <point x="144" y="244" type="line"/>
      <point x="200" y="253"/>
      <point x="239" y="272"/>
      <point x="256" y="326" type="curve" smooth="yes"/>
      <point x="267" y="362"/>
      <point x="275" y="401"/>
      <point x="275" y="476" type="curve" smooth="yes"/>
      <point x="275" y="492"/>
      <point x="273" y="543"/>
      <point x="269" y="576" type="curve"/>
      <point x="189" y="575" type="line"/>
      <point x="191" y="539"/>
      <point x="193" y="529"/>
      <point x="193" y="487" type="curve" smooth="yes"/>
      <point x="193" y="450"/>
      <point x="192" y="401"/>
      <point x="182" y="368" type="curve"/>
      <point x="194" y="377" type="line"/>
      <point x="173" y="380"/>
      <point x="121" y="384"/>
      <point x="97" y="384" type="curve" smooth="yes"/>
      <point x="61" y="384"/>
      <point x="46" y="374"/>
      <point x="46" y="352" type="curve" smooth="yes"/>
      <point x="46" y="322"/>
      <point x="63" y="290"/>
      <point x="128" y="206" type="curve" smooth="yes"/>
      <point x="306" y="-20" type="line"/>
    </contour>
    <contour>
      <point x="559" y="251" type="line"/>
      <point x="510" y="340" type="line"/>
      <point x="435" y="272" type="line"/>
      <point x="443" y="256" type="line"/>
      <point x="323" y="150" type="line"/>
      <point x="381" y="93" type="line"/>
    </contour>
    <contour>
      <point x="510" y="340" type="line"/>
      <point x="476" y="327"/>
      <point x="437" y="322"/>
      <point x="400" y="322" type="curve" smooth="yes"/>
      <point x="344" y="322"/>
      <point x="289" y="331"/>
      <point x="256" y="351" type="curve"/>
      <point x="240" y="313" type="line"/>
      <point x="295" y="269"/>
      <point x="375" y="256"/>
      <point x="460" y="258" type="curve"/>
    </contour>
    <contour>
      <point x="542" y="545" type="line"/>
      <point x="542" y="555" type="line"/>
      <point x="508" y="620" type="line"/>
      <point x="-28" y="620" type="line"/>
      <point x="-28" y="610" type="line"/>
      <point x="6" y="545" type="line"/>
    </contour>
  </outline>
</glyph>
<glyph name="dSh.half" format="2">
  <advance width="416"/>
  <outline>
    <contour>
      <point x="166" y="166" type="curve" smooth="yes"/>
      <point x="223" y="166"/>
      <point x="387" y="209"/>
      <point x="387" y="333" type="curve" smooth="yes"/>
      <point x="387" y="407"/>
      <point x="322" y="505"/>
      <point x="212" y="505" type="curve" smooth="yes"/>
      <point x="172" y="505"/>
      <point x="108" y="492"/>
      <point x="44" y="453" type="curve"/>
      <point x="89" y="379" type="line"/>
      <point x="150" y="418"/>
      <point x="215" y="436"/>
      <point x="249" y="436" type="curve" smooth="yes"/>
      <point x="297" y="436"/>
      <point x="325" y="404"/>
      <point x="325" y="367" type="curve" smooth="yes"/>
      <point x="325" y="304"/>
      <point x="245" y="257"/>
      <point x="192" y="248" type="curve"/>
      <point x="157" y="271"/>
      <point x="118" y="288"/>
      <point x="84" y="288" type="curve" smooth="yes"/>
      <point x="55" y="288"/>
      <point x="48" y="277"/>
      <point x="48" y="261" type="curve" smooth="yes"/>
      <point x="48" y="221"/>
      <point x="96" y="166"/>
    </contour>
    <contour>
      <point x="361" y="-21" type="line"/>
      <point x="412" y="21" type="line"/>
      <point x="224" y="214" type="line"/>
      <point x="171" y="205" type="line"/>
      <point x="351" y="-21" type="line"/>
    </contour>
    <contour>
      <point x="266" y="462" type="line"/>
      <point x="265" y="581" type="line"/>
      <point x="188" y="581" type="line"/>
      <point x="188" y="462" type="line"/>
    </contour>
    <contour>
      <point x="526" y="545" type="line"/>
      <point x="526" y="555" type="line"/>
      <point x="492" y="620" type="line"/>
      <point x="-25" y="620" type="line"/>
      <point x="-25" y="610" type="line"/>
      <point x="9" y="545" type="line"/>
    </contour>
  </outline>
</glyph>
<glyph name="dShVa" format="2">
  <advance width="705"/>
  <outline>
    <contour>
      <point x="93" y="211" type="line"/>
      <point x="172" y="255"/>
      <point x="248" y="296"/>
      <point x="303" y="340" type="curve" smooth="yes"/>
      <point x="355" y="382"/>
      <point x="387" y="417"/>
      <point x="387" y="472" type="curve" smooth="yes"/>
      <point x="387" y="561"/>
      <point x="301" y="638"/>
      <point x="211" y="638" type="curve" smooth="yes"/>
      <point x="135" y="638"/>
      <point x="84" y="584"/>
      <point x="84" y="522" type="curve" smooth="yes"/>
      <point x="84" y="398"/>
      <point x="275" y="312"/>
      <point x="441" y="277" type="curve"/>
      <point x="568" y="275" type="line"/>
      <point x="545" y="316" type="line"/>
      <point x="381" y="326"/>
      <point x="160" y="383"/>
      <point x="160" y="492" type="curve" smooth="yes"/>
      <point x="160" y="538"/>
      <point x="201" y="572"/>
      <point x="247" y="572" type="curve" smooth="yes"/>
      <point x="290" y="572"/>
      <point x="319" y="546"/>
      <point x="319" y="506" type="curve" smooth="yes"/>
      <point x="319" y="462"/>
      <point x="291" y="432"/>
      <point x="209" y="377" type="curve" smooth="yes"/>
      <point x="160" y="344"/>
      <point x="103" y="313"/>
      <point x="31" y="275" type="curve"/>
    </contour>
    <contour>
      <point x="441" y="6" type="curve" smooth="yes"/>
      <point x="476" y="6"/>
      <point x="510" y="16"/>
      <point x="544" y="41" type="curve"/>
      <point x="544" y="146" type="line"/>
      <point x="496" y="93"/>
      <point x="444" y="70"/>
      <point x="402" y="70" type="curve" smooth="yes"/>
      <point x="360" y="70"/>
      <point x="327" y="90"/>
      <point x="327" y="133" type="curve" smooth="yes"/>
      <point x="327" y="192"/>
      <point x="391" y="242"/>
      <point x="496" y="242" type="curve" smooth="yes"/>
      <point x="512" y="242"/>
      <point x="530" y="240"/>
      <point x="545" y="239" type="curve"/>
      <point x="545" y="301" type="line"/>
      <point x="377" y="304" type="line"/>
      <point x="307" y="283"/>
      <point x="253" y="236"/>
      <point x="253" y="172" type="curve" smooth="yes"/>
      <point x="253" y="92"/>
      <point x="337" y="6"/>
    </contour>
    <contour>
      <point x="618" y="-97" type="line"/>
      <point x="616" y="581" type="line"/>
      <point x="532" y="581" type="line"/>
      <point x="529" y="-40" type="line"/>
      <point x="608" y="-97" type="line"/>
    </contour>
    <contour>
      <point x="733" y="545" type="line"/>
      <point x="733" y="555" type="line"/>
      <point x="699" y="620" type="line"/>
      <point x="392" y="620" type="line"/>
      <point x="392" y="610" type="line"/>
      <point x="426" y="545" type="line"/>
    </contour>
  </outline>
</glyph>
<glyph name="dSignCandraERephAnusvara" format="2">
  <outline>
    <contour>
      <point x="-103" y="608" type="line"/>
      <point x="-156" y="667"/>
      <point x="-184" y="708"/>
      <point x="-184" y="756" type="curve" smooth="yes"/>
      <point x="-184" y="804"/>
      <point x="-155" y="843"/>
      <point x="-91" y="843" type="curve" smooth="yes"/>
      <point x="-63" y="843"/>
      <point x="-38" y="835"/>
      <point x="-16" y="825" type="curve"/>
      <point x="-12" y="831" type="line"/>
      <point x="-31" y="885"/>
      <point x="-69" y="911"/>
      <point x="-127" y="911" type="curve" smooth="yes"/>
      <point x="-198" y="911"/>
      <point x="-245" y="865"/>
      <point x="-245" y="789" type="curve" smooth="yes"/>
      <point x="-245" y="744"/>
      <point x="-233" y="687"/>
      <point x="-154" y="608" type="curve"/>
    </contour>
    <contour>
      <point x="-334" y="671" type="curve" smooth="yes"/>
      <point x="-293" y="671"/>
      <point x="-251" y="687"/>
      <point x="-217" y="727" type="curve"/>
      <point x="-236" y="836" type="line"/>
      <point x="-259" y="787"/>
      <point x="-293" y="737"/>
      <point x="-354" y="737" type="curve" smooth="yes"/>
      <point x="-401" y="737"/>
      <point x="-449" y="767"/>
      <point x="-494" y="853" type="curve"/>
      <point x="-528" y="835" type="line"/>
      <point x="-480" y="730"/>
      <point x="-418" y="671"/>
    </contour>
    <contour>
      <point x="-13" y="740" type="line"/>
      <point x="-75" y="801" type="line"/>
      <point x="-136" y="740" type="line"/>
      <point x="-75" y="679" type="line"/>
    </contour>
  </outline>
</glyph>
<glyph name="dSignIi.W" format="2">
  <advance width="267"/>
  <outline>
    <contour>
      <point x="173" y="606" type="line"/>
      <point x="111" y="760"/>
      <point x="-37" y="890"/>
      <point x="-237" y="890" type="curve" smooth="yes"/>
      <point x="-381" y="890"/>
      <point x="-438" y="823"/>
      <point x="-438" y="753" type="curve" smooth="yes"/>
      <point x="-438" y="715"/>
      <point x="-421" y="675"/>
      <point x="-388" y="642" type="curve"/>
      <point x="-358" y="659" type="line"/>
      <point x="-367" y="679"/>
      <point x="-372" y="696"/>
      <point x="-372" y="714" type="curve" smooth="yes"/>
      <point x="-372" y="768"/>
      <point x="-330" y="815"/>
      <point x="-211" y="815" type="curve" smooth="yes"/>
      <point x="-72" y="815"/>
      <point x="67" y="751"/>
      <point x="104" y="603" type="curve"/>
    </contour>
    <contour>
      <point x="180" y="-15" type="line"/>
      <point x="178" y="571" type="line"/>
      <point x="94" y="571" type="line"/>
      <point x="90" y="37" type="line"/>
      <point x="170" y="-15" type="line"/>
    </contour>
    <contour>
      <point x="295" y="545" type="line"/>
      <point x="295" y="555" type="line"/>
      <point x="261" y="620" type="line"/>
      <point x="-28" y="620" type="line"/>
      <point x="-28" y="610" type="line"/>
      <point x="6" y="545" type="line"/>
    </contour>
  </outline>
</glyph>
<glyph name="dSix.sups" format="2">
  <advance width="441"/>
  <outline>
    <contour>
      <point x="203" y="545" type="line"/>
      <point x="182" y="555"/>
      <point x="161" y="574"/>
      <point x="161" y="599" type="curve" smooth="yes"/>
      <point x="161" y="638"/>
      <point x="212" y="648"/>
      <point x="260" y="648" type="curve" smooth="yes"/>
      <point x="285" y="648"/>
      <point x="314" y="645"/>
      <point x="332" y="641" type="curve"/>
      <point x="308" y="710" type="line"/>
      <point x="285" y="714"/>
      <point x="262" y="717"/>
      <point x="235" y="717" type="curve" smooth="yes"/>
      <point x="156" y="717"/>
      <point x="92" y="690"/>
      <point x="92" y="635" type="curve" smooth="yes"/>
      <point x="92" y="597"/>
      <point x="121" y="558"/>
      <point x="167" y="522" type="curve"/>
    </contour>
    <contour>
      <point x="342" y="407" type="line"/>
      <point x="312" y="389"/>
      <point x="282" y="377"/>
      <point x="244" y="377" type="curve" smooth="yes"/>
      <point x="212" y="377"/>
      <point x="179" y="387"/>
      <point x="179" y="427" type="curve" smooth="yes"/>
      <point x="179" y="467"/>
      <point x="214" y="508"/>
      <point x="355" y="510" type="curve"/>
      <point x="321" y="573" type="line"/>
      <point x="216" y="569"/>
      <point x="115" y="537"/>
      <point x="115" y="455" type="curve" smooth="yes"/>
      <point x="115" y="382"/>
      <point x="200" y="320"/>
      <point x="282" y="320" type="curve" smooth="yes"/>
      <point x="310" y="320"/>
      <point x="336" y="327"/>
      <point x="358" y="338" type="curve"/>
      <point x="373" y="340" type="line"/>
      <point x="402" y="355"/>
      <point x="413" y="378"/>
      <point x="413" y="396" type="curve" smooth="yes"/>
      <point x="413" y="433"/>
      <point x="362" y="464"/>
      <point x="327" y="464" type="curve" smooth="yes"/>
      <point x="304" y="464"/>
      <point x="298" y="451"/>
      <point x="298" y="437" type="curve" smooth="yes"/>
      <point x="298" y="413"/>
      <point x="312" y="389"/>
      <point x="331" y="356" type="curve" smooth="yes"/>
      <point x="418" y="205" type="line"/>
      <point x="426" y="205" type="line"/>
      <point x="471" y="234" type="line"/>
    </contour>
  </outline>
</glyph>
<glyph name="dSs.half" format="2">
  <advance width="346"/>
  <outline>
    <contour>
      <point x="289" y="155" type="curve" smooth="yes"/>
      <point x="323" y="155"/>
      <point x="372" y="163"/>
      <point x="453" y="232" type="curve"/>
      <point x="425" y="291" type="line"/>
      <point x="393" y="286" type="line"/>
      <point x="334" y="243"/>
      <point x="279" y="220"/>
      <point x="241" y="220" type="curve" smooth="yes"/>
      <point x="209" y="220"/>
      <point x="162" y="248"/>
      <point x="161" y="312" type="curve" smooth="yes"/>
      <point x="158" y="589" type="line"/>
      <point x="74" y="589" type="line"/>
      <point x="74" y="532"/>
      <point x="73" y="439"/>
      <point x="73" y="388" type="curve" smooth="yes"/>
      <point x="73" y="373"/>
      <point x="73" y="353"/>
      <point x="74" y="335" type="curve" smooth="yes"/>
      <point x="76" y="266"/>
      <point x="185" y="155"/>
    </contour>
    <contour>
      <point x="425" y="291" type="line"/>
      <point x="145" y="567" type="line"/>
      <point x="113" y="538" type="line"/>
      <point x="412" y="246" type="line"/>
    </contour>
    <contour>
      <point x="446" y="545" type="line"/>
      <point x="446" y="555" type="line"/>
      <point x="412" y="620" type="line"/>
      <point x="-28" y="620" type="line"/>
      <point x="-28" y="610" type="line"/>
      <point x="6" y="545" type="line"/>
    </contour>
  </outline>
</glyph>
<glyph name="dSsTthYa" format="2">
  <advance width="1056"/>
  <outline>
    <component base="dSsTtha"/>
    <contour>
      <point x="895" y="204" type="line"/>
      <point x="841" y="155"/>
      <point x="785" y="128"/>
      <point x="742" y="128" type="curve" smooth="yes"/>
      <point x="693" y="128"/>
      <point x="655" y="163"/>
      <point x="654" y="204" type="curve"/>
      <point x="745" y="232"/>
      <point x="781" y="268"/>
      <point x="781" y="319" type="curve" smooth="yes"/>
      <point x="781" y="374"/>
      <point x="737" y="468"/>
      <point x="613" y="468" type="curve" smooth="yes"/>
      <point x="440" y="468" type="line"/>
      <point x="440" y="395" type="line"/>
      <point x="638" y="395" type="line" smooth="yes"/>
      <point x="704" y="395"/>
      <point x="711" y="376"/>
      <point x="711" y="360" type="curve" smooth="yes"/>
      <point x="711" y="319"/>
      <point x="663" y="289"/>
      <point x="568" y="264" type="curve"/>
      <point x="588" y="152"/>
      <point x="672" y="65"/>
      <point x="773" y="65" type="curve" smooth="yes"/>
      <point x="808" y="65"/>
      <point x="846" y="75"/>
      <point x="878" y="95" type="curve"/>
      <point x="895" y="87" type="line"/>
    </contour>
    <contour>
      <point x="883" y="581" type="line"/>
      <point x="879" y="7" type="line"/>
      <point x="959" y="-45" type="line"/>
      <point x="969" y="-45" type="line"/>
      <point x="967" y="581" type="line"/>
    </contour>
    <contour>
      <point x="1084" y="545" type="line"/>
      <point x="1084" y="555" type="line"/>
      <point x="1050" y="620" type="line"/>
      <point x="509" y="620" type="line"/>
      <point x="509" y="610" type="line"/>
      <point x="543" y="545" type="line"/>
    </contour>
  </outline>
</glyph>
<glyph name="dTCa" format="2">
  <advance width="896"/>
  <outline>
    <component base="dCa" xOffset="220"/>
    <contour>
      <point x="371" y="545" type="line"/>
      <point x="371" y="555" type="line"/>
      <point x="337" y="620" type="line"/>
      <point x="-28" y="620" type="line"/>
      <point x="-28" y="610" type="line"/>
      <point x="6" y="545" type="line"/>
    </contour>
    <contour>
      <point x="405" y="390" type="line"/>
      <point x="343" y="399"/>
      <point x="293" y="404"/>
      <point x="247" y="404" type="curve" smooth="yes"/>
      <point x="95" y="404"/>
      <point x="48" y="349"/>
      <point x="48" y="283" type="curve" smooth="yes"/>
      <point x="48" y="202"/>
      <point x="121" y="100"/>
      <point x="206" y="-10" type="curve"/>
      <point x="216" y="-10" type="line"/>
      <point x="259" y="25" type="line"/>
      <point x="154" y="145"/>
      <point x="125" y="185"/>
      <point x="125" y="235" type="curve" smooth="yes"/>
      <point x="125" y="297"/>
      <point x="169" y="335"/>
      <point x="273" y="335" type="curve" smooth="yes"/>
      <point x="405" y="335" type="line"/>
    </contour>
  </outline>
</glyph>
<glyph name="dTRa.alt" format="2">
  <advance width="623"/>
  <outline>
    <contour>
      <point x="448" y="42" type="line"/>
      <point x="526" y="-10" type="line"/>
      <point x="536" y="-10" type="line"/>
      <point x="534" y="581" type="line"/>
      <point x="450" y="581" type="line"/>
    </contour>
    <contour>
      <point x="651" y="545" type="line"/>
      <point x="651" y="555" type="line"/>
      <point x="617" y="620" type="line"/>
      <point x="-28" y="620" type="line"/>
      <point x="-28" y="610" type="line"/>
      <point x="6" y="545" type="line"/>
    </contour>
    <contour>
      <point x="475" y="397" type="line"/>
      <point x="403" y="397" type="line"/>
      <point x="420" y="363" type="line"/>
      <point x="230" y="199" type="line"/>
      <point x="293" y="147" type="line"/>
      <point x="475" y="310" type="line"/>
    </contour>
    <contour>
      <point x="472" y="432" type="line"/>
      <point x="409" y="441"/>
      <point x="342" y="449"/>
      <point x="276" y="449" type="curve" smooth="yes"/>
      <point x="159" y="449"/>
      <point x="51" y="417"/>
      <point x="51" y="297" type="curve" smooth="yes"/>
      <point x="51" y="206"/>
      <point x="112" y="120"/>
      <point x="213" y="-10" type="curve"/>
      <point x="223" y="-10" type="line"/>
      <point x="266" y="25" type="line"/>
      <point x="154" y="153"/>
      <point x="128" y="187"/>
      <point x="128" y="248" type="curve" smooth="yes"/>
      <point x="128" y="345"/>
      <point x="200" y="374"/>
      <point x="296" y="374" type="curve" smooth="yes"/>
      <point x="356" y="374"/>
      <point x="439" y="363"/>
      <point x="472" y="357" type="curve"/>
    </contour>
  </outline>
</glyph>
<glyph name="dTRa" format="2">
  <advance width="575"/>
  <outline>
    <contour>
      <point x="399" y="248" type="line"/>
      <point x="439" y="222" type="line"/>
      <point x="439" y="357" type="line"/>
      <point x="104" y="143" type="line"/>
      <point x="163" y="85" type="line"/>
    </contour>
    <contour>
      <point x="416" y="333" type="line"/>
      <point x="294" y="428"/>
      <point x="269" y="451"/>
      <point x="210" y="451" type="curve" smooth="yes"/>
      <point x="168" y="451"/>
      <point x="92" y="424"/>
      <point x="39" y="405" type="curve"/>
      <point x="39" y="400" type="line"/>
      <point x="92" y="331" type="line"/>
      <point x="136" y="349"/>
      <point x="206" y="378"/>
      <point x="241" y="378" type="curve" smooth="yes"/>
      <point x="278" y="378"/>
      <point x="320" y="356"/>
      <point x="416" y="279" type="curve"/>
    </contour>
    <contour>
      <point x="488" y="-10" type="line"/>
      <point x="486" y="581" type="line"/>
      <point x="402" y="581" type="line"/>
      <point x="398" y="42" type="line"/>
      <point x="478" y="-10" type="line"/>
    </contour>
    <contour>
      <point x="603" y="545" type="line"/>
      <point x="603" y="555" type="line"/>
      <point x="569" y="620" type="line"/>
      <point x="-28" y="620" type="line"/>
      <point x="-28" y="610" type="line"/>
      <point x="6" y="545" type="line"/>
    </contour>
  </outline>
</glyph>
<glyph name="dTtTta" format="2">
  <advance width="531"/>
  <outline>
    <contour>
      <point x="313" y="93" type="curve" smooth="yes"/>
      <point x="377" y="93"/>
      <point x="442" y="119"/>
      <point x="502" y="182" type="curve"/>
      <point x="443" y="242" type="line"/>
      <point x="396" y="197"/>
      <point x="340" y="166"/>
      <point x="267" y="166" type="curve" smooth="yes"/>
      <point x="191" y="166"/>
      <point x="127" y="201"/>
      <point x="127" y="272" type="curve" smooth="yes"/>
      <point x="127" y="341"/>
      <point x="184" y="381"/>
      <point x="268" y="381" type="curve" smooth="yes"/>
      <point x="395" y="381" type="line"/>
      <point x="407" y="389" type="line"/>
      <point x="407" y="439"/>
      <point x="406" y="539"/>
      <point x="405" y="591" type="curve"/>
      <point x="324" y="591" type="line"/>
      <point x="324" y="455" type="line"/>
      <point x="265" y="455" type="line" smooth="yes"/>
      <point x="131" y="455"/>
      <point x="52" y="417"/>
      <point x="52" y="321" type="curve" smooth="yes"/>
      <point x="52" y="205"/>
      <point x="176" y="93"/>
    </contour>
    <contour>
      <point x="316" y="-319" type="curve" smooth="yes"/>
      <point x="385" y="-319"/>
      <point x="446" y="-287"/>
      <point x="496" y="-234" type="curve"/>
      <point x="439" y="-176" type="line"/>
      <point x="393" y="-219"/>
      <point x="341" y="-248"/>
      <point x="271" y="-248" type="curve" smooth="yes"/>
      <point x="199" y="-248"/>
      <point x="142" y="-218"/>
      <point x="142" y="-147" type="curve" smooth="yes"/>
      <point x="142" y="-78"/>
      <point x="196" y="-43"/>
      <point x="277" y="-43" type="curve" smooth="yes"/>
      <point x="393" y="-43" type="line"/>
      <point x="404" y="-35" type="line"/>
      <point x="404" y="6"/>
      <point x="403" y="109"/>
      <point x="402" y="159" type="curve"/>
      <point x="325" y="159" type="line"/>
      <point x="325" y="31" type="line"/>
      <point x="274" y="31" type="line" smooth="yes"/>
      <point x="146" y="31"/>
      <point x="70" y="-3"/>
      <point x="70" y="-99" type="curve" smooth="yes"/>
      <point x="70" y="-223"/>
      <point x="196" y="-319"/>
    </contour>
    <contour>
      <point x="559" y="545" type="line"/>
      <point x="559" y="555" type="line"/>
      <point x="525" y="620" type="line"/>
      <point x="-28" y="620" type="line"/>
      <point x="-28" y="610" type="line"/>
      <point x="6" y="545" type="line"/>
    </contour>
  </outline>
</glyph>
<glyph name="dTtTtha" format="2">
  <advance width="536"/>
  <outline>
    <contour>
      <point x="313" y="93" type="curve" smooth="yes"/>
      <point x="383" y="93"/>
      <point x="446" y="123"/>
      <point x="502" y="182" type="curve"/>
      <point x="443" y="242" type="line"/>
      <point x="396" y="197"/>
      <point x="340" y="166"/>
      <point x="267" y="166" type="curve" smooth="yes"/>
      <point x="191" y="166"/>
      <point x="127" y="201"/>
      <point x="127" y="272" type="curve" smooth="yes"/>
      <point x="127" y="341"/>
      <point x="184" y="381"/>
      <point x="268" y="381" type="curve" smooth="yes"/>
      <point x="395" y="381" type="line"/>
      <point x="407" y="389" type="line"/>
      <point x="407" y="439"/>
      <point x="406" y="529"/>
      <point x="405" y="581" type="curve"/>
      <point x="324" y="581" type="line"/>
      <point x="324" y="455" type="line"/>
      <point x="265" y="455" type="line" smooth="yes"/>
      <point x="131" y="455"/>
      <point x="52" y="417"/>
      <point x="52" y="321" type="curve" smooth="yes"/>
      <point x="52" y="205"/>
      <point x="176" y="93"/>
    </contour>
    <contour>
      <point x="321" y="-320" type="curve" smooth="yes"/>
      <point x="431" y="-320"/>
      <point x="512" y="-249"/>
      <point x="512" y="-161" type="curve" smooth="yes"/>
      <point x="512" y="-89"/>
      <point x="465" y="-32"/>
      <point x="387" y="12" type="curve"/>
      <point x="372" y="-32" type="line"/>
      <point x="402" y="-45"/>
      <point x="436" y="-83"/>
      <point x="436" y="-132" type="curve" smooth="yes"/>
      <point x="436" y="-201"/>
      <point x="362" y="-253"/>
      <point x="279" y="-253" type="curve" smooth="yes"/>
      <point x="208" y="-253"/>
      <point x="143" y="-216"/>
      <point x="143" y="-145" type="curve" smooth="yes"/>
      <point x="143" y="-79"/>
      <point x="194" y="-42"/>
      <point x="338" y="-42" type="curve" smooth="yes"/>
      <point x="386" y="-42"/>
      <point x="400" y="-36"/>
      <point x="400" y="27" type="curve" smooth="yes"/>
      <point x="400" y="77"/>
      <point x="399" y="102"/>
      <point x="399" y="138" type="curve"/>
      <point x="322" y="138" type="line"/>
      <point x="322" y="72" type="line" smooth="yes"/>
      <point x="322" y="29"/>
      <point x="314" y="28"/>
      <point x="280" y="28" type="curve" smooth="yes"/>
      <point x="123" y="28"/>
      <point x="67" y="-31"/>
      <point x="67" y="-106" type="curve" smooth="yes"/>
      <point x="67" y="-211"/>
      <point x="182" y="-320"/>
    </contour>
    <contour>
      <point x="564" y="545" type="line"/>
      <point x="564" y="555" type="line"/>
      <point x="530" y="620" type="line"/>
      <point x="-28" y="620" type="line"/>
      <point x="-28" y="610" type="line"/>
      <point x="6" y="545" type="line"/>
    </contour>
  </outline>
</glyph>
<glyph name="dV.half" format="2">
  <advance width="336"/>
  <outline>
    <contour>
      <point x="403" y="545" type="line"/>
      <point x="403" y="555" type="line"/>
      <point x="369" y="620" type="line"/>
      <point x="-28" y="620" type="line"/>
      <point x="-28" y="610" type="line"/>
      <point x="6" y="545" type="line"/>
    </contour>
    <contour>
      <point x="403" y="294" type="line"/>
      <point x="324" y="212"/>
      <point x="255" y="196"/>
      <point x="214" y="196" type="curve" smooth="yes"/>
      <point x="159" y="196"/>
      <point x="114" y="224"/>
      <point x="114" y="281" type="curve" smooth="yes"/>
      <point x="114" y="349"/>
      <point x="175" y="389"/>
      <point x="246" y="389" type="curve" smooth="yes"/>
      <point x="300" y="389"/>
      <point x="354" y="365"/>
      <point x="397" y="334" type="curve"/>
      <point x="420" y="370" type="line"/>
      <point x="374" y="423"/>
      <point x="308" y="467"/>
      <point x="224" y="467" type="curve" smooth="yes"/>
      <point x="126" y="467"/>
      <point x="41" y="406"/>
      <point x="41" y="321" type="curve" smooth="yes"/>
      <point x="41" y="244"/>
      <point x="111" y="131"/>
      <point x="261" y="131" type="curve" smooth="yes"/>
      <point x="316" y="131"/>
      <point x="374" y="147"/>
      <point x="453" y="228" type="curve"/>
    </contour>
  </outline>
</glyph>
<glyph name="dVCa" format="2">
  <advance width="1004"/>
  <outline>
    <contour>
      <point x="258" y="122" type="curve" smooth="yes"/>
      <point x="364" y="122"/>
      <point x="444" y="181"/>
      <point x="444" y="269" type="curve" smooth="yes"/>
      <point x="444" y="354"/>
      <point x="358" y="458"/>
      <point x="228" y="458" type="curve" smooth="yes"/>
      <point x="124" y="458"/>
      <point x="41" y="397"/>
      <point x="41" y="313" type="curve" smooth="yes"/>
      <point x="41" y="235"/>
      <point x="113" y="122"/>
    </contour>
    <contour>
      <point x="216" y="188" type="curve" smooth="yes"/>
      <point x="154" y="188"/>
      <point x="114" y="220"/>
      <point x="114" y="273" type="curve" smooth="yes"/>
      <point x="114" y="341"/>
      <point x="184" y="383"/>
      <point x="263" y="383" type="curve" smooth="yes"/>
      <point x="323" y="383"/>
      <point x="377" y="359"/>
      <point x="377" y="304" type="curve" smooth="yes"/>
      <point x="377" y="233"/>
      <point x="289" y="188"/>
    </contour>
    <contour>
      <point x="689" y="128" type="curve" smooth="yes"/>
      <point x="733" y="128"/>
      <point x="776" y="138"/>
      <point x="848" y="195" type="curve"/>
      <point x="850" y="301" type="line"/>
      <point x="746" y="209"/>
      <point x="683" y="192"/>
      <point x="642" y="192" type="curve" smooth="yes"/>
      <point x="594" y="192"/>
      <point x="549" y="215"/>
      <point x="549" y="277" type="curve" smooth="yes"/>
      <point x="549" y="365"/>
      <point x="642" y="373"/>
      <point x="730" y="373" type="curve"/>
      <point x="730" y="400" type="line"/>
      <point x="523" y="399" type="line"/>
      <point x="486" y="371"/>
      <point x="477" y="336"/>
      <point x="477" y="310" type="curve" smooth="yes"/>
      <point x="477" y="232"/>
      <point x="554" y="128"/>
    </contour>
    <contour>
      <point x="511" y="370" type="line"/>
      <point x="696" y="387" type="line"/>
      <point x="730" y="373" type="line"/>
      <point x="744" y="373"/>
      <point x="750" y="373"/>
      <point x="772" y="372" type="curve"/>
      <point x="772" y="382" type="line"/>
      <point x="739" y="446" type="line"/>
      <point x="352" y="446" type="line"/>
      <point x="352" y="436" type="line"/>
      <point x="362" y="417" type="line"/>
      <point x="347" y="408" type="line"/>
      <point x="346" y="370" type="line"/>
    </contour>
    <contour>
      <point x="1032" y="545" type="line"/>
      <point x="1032" y="555" type="line"/>
      <point x="998" y="620" type="line"/>
      <point x="-28" y="620" type="line"/>
      <point x="-28" y="610" type="line"/>
      <point x="6" y="545" type="line"/>
    </contour>
    <contour>
      <point x="917" y="-10" type="line"/>
      <point x="915" y="581" type="line"/>
      <point x="831" y="581" type="line"/>
      <point x="827" y="42" type="line"/>
      <point x="907" y="-10" type="line"/>
    </contour>
  </outline>
  <guideline angle="0" x="0" y="128"/>
</glyph>
